<svg width="400" height="431" viewBox="0 0 400 431" fill="none" xmlns="http://www.w3.org/2000/svg">
<g filter="url(#filter0_d_1_275)">
<rect x="56.6782" y="50.2007" width="286.63" height="316.817" rx="25.91" fill="#3D9DF1" shape-rendering="crispEdges"/>
<rect x="143.315" y="90.6851" width="113.356" height="113.356" rx="25.91" fill="#ECF6FF"/>
<path d="M196.033 128.117L207.582 139.667M219.132 151.216L207.582 139.667M211.913 135.336L207.582 139.667M187.371 159.878L188.815 161.322C192.004 164.511 197.175 164.511 200.364 161.322L214.801 146.885L207.582 139.667L200.364 132.448L185.927 146.885C182.738 150.074 182.738 155.245 185.927 158.434L187.371 159.878ZM187.371 159.878L181.143 166.106M190.258 151.216L196.033 156.991" stroke="#0086FF" stroke-width="2.5" stroke-linecap="round" stroke-linejoin="round"/>
<path d="M97.5472 257.262C96.1653 257.262 94.8871 257.012 93.7125 256.511C92.5379 256.01 91.5102 255.311 90.6292 254.412C89.7483 253.514 89.0574 252.46 88.5564 251.251C88.0728 250.042 87.8309 248.721 87.8309 247.287C87.8309 245.853 88.0641 244.532 88.5305 243.323C89.0142 242.096 89.6878 241.043 90.5515 240.162C91.4324 239.264 92.4602 238.573 93.6348 238.089C94.8094 237.588 96.0876 237.338 97.4695 237.338C98.8513 237.338 100.086 237.571 101.175 238.037C102.28 238.504 103.213 239.125 103.973 239.903C104.733 240.663 105.277 241.501 105.605 242.416L102.47 243.919C102.107 242.917 101.494 242.105 100.631 241.483C99.7668 240.861 98.7132 240.55 97.4695 240.55C96.2603 240.55 95.1894 240.835 94.2566 241.406C93.3411 241.976 92.6243 242.761 92.1061 243.763C91.6052 244.765 91.3547 245.94 91.3547 247.287C91.3547 248.634 91.6138 249.818 92.132 250.837C92.6675 251.839 93.4016 252.625 94.3344 253.195C95.2671 253.765 96.3381 254.05 97.5472 254.05C98.5318 254.05 99.4386 253.86 100.268 253.48C101.097 253.082 101.762 252.53 102.263 251.821C102.764 251.096 103.014 250.241 103.014 249.256V247.779L104.621 249.179H97.4695V246.199H106.538V248.142C106.538 249.628 106.288 250.94 105.787 252.08C105.286 253.22 104.603 254.179 103.74 254.956C102.893 255.716 101.935 256.295 100.864 256.692C99.7927 257.072 98.6873 257.262 97.5472 257.262ZM115.726 257.262C114.275 257.262 113.006 256.934 111.917 256.278C110.829 255.621 109.983 254.732 109.378 253.609C108.774 252.486 108.471 251.243 108.471 249.878C108.471 248.462 108.774 247.209 109.378 246.121C110 245.016 110.838 244.143 111.891 243.504C112.962 242.865 114.154 242.546 115.467 242.546C116.573 242.546 117.54 242.727 118.369 243.09C119.215 243.452 119.932 243.953 120.519 244.592C121.107 245.232 121.556 245.966 121.867 246.795C122.178 247.607 122.333 248.488 122.333 249.438C122.333 249.679 122.316 249.93 122.281 250.189C122.264 250.448 122.221 250.673 122.152 250.863H111.27V248.272H120.234L118.628 249.489C118.784 248.695 118.74 247.987 118.499 247.365C118.274 246.743 117.894 246.251 117.358 245.888C116.84 245.525 116.21 245.344 115.467 245.344C114.759 245.344 114.128 245.525 113.576 245.888C113.023 246.233 112.6 246.752 112.306 247.443C112.03 248.116 111.926 248.937 111.995 249.904C111.926 250.768 112.038 251.536 112.332 252.21C112.643 252.866 113.092 253.376 113.679 253.739C114.284 254.101 114.975 254.283 115.752 254.283C116.529 254.283 117.186 254.119 117.721 253.791C118.274 253.462 118.706 253.022 119.017 252.469L121.763 253.816C121.487 254.49 121.055 255.086 120.468 255.604C119.88 256.122 119.181 256.528 118.369 256.822C117.574 257.116 116.693 257.262 115.726 257.262ZM124.906 256.952V242.856H128.093V245.629L127.834 245.137C128.162 244.29 128.698 243.651 129.44 243.219C130.2 242.77 131.081 242.546 132.083 242.546C133.12 242.546 134.035 242.77 134.83 243.219C135.642 243.668 136.272 244.299 136.721 245.111C137.17 245.905 137.395 246.829 137.395 247.883V256.952H134.001V248.686C134.001 248.064 133.88 247.529 133.638 247.08C133.396 246.631 133.059 246.285 132.627 246.043C132.213 245.784 131.721 245.655 131.15 245.655C130.598 245.655 130.105 245.784 129.674 246.043C129.242 246.285 128.905 246.631 128.663 247.08C128.421 247.529 128.3 248.064 128.3 248.686V256.952H124.906ZM146.95 257.262C145.499 257.262 144.229 256.934 143.141 256.278C142.053 255.621 141.206 254.732 140.602 253.609C139.997 252.486 139.695 251.243 139.695 249.878C139.695 248.462 139.997 247.209 140.602 246.121C141.224 245.016 142.061 244.143 143.115 243.504C144.186 242.865 145.378 242.546 146.691 242.546C147.796 242.546 148.763 242.727 149.593 243.09C150.439 243.452 151.156 243.953 151.743 244.592C152.33 245.232 152.78 245.966 153.09 246.795C153.401 247.607 153.557 248.488 153.557 249.438C153.557 249.679 153.54 249.93 153.505 250.189C153.488 250.448 153.445 250.673 153.375 250.863H142.493V248.272H151.458L149.852 249.489C150.007 248.695 149.964 247.987 149.722 247.365C149.498 246.743 149.118 246.251 148.582 245.888C148.064 245.525 147.433 245.344 146.691 245.344C145.982 245.344 145.352 245.525 144.799 245.888C144.246 246.233 143.823 246.752 143.53 247.443C143.253 248.116 143.15 248.937 143.219 249.904C143.15 250.768 143.262 251.536 143.556 252.21C143.866 252.866 144.316 253.376 144.903 253.739C145.507 254.101 146.198 254.283 146.976 254.283C147.753 254.283 148.409 254.119 148.945 253.791C149.498 253.462 149.929 253.022 150.24 252.469L152.987 253.816C152.71 254.49 152.279 255.086 151.691 255.604C151.104 256.122 150.404 256.528 149.593 256.822C148.798 257.116 147.917 257.262 146.95 257.262ZM156.13 256.952V242.856H159.317V245.992L159.058 245.525C159.386 244.472 159.895 243.737 160.586 243.323C161.295 242.908 162.141 242.701 163.126 242.701H163.955V245.707H162.737C161.77 245.707 160.992 246.009 160.405 246.613C159.818 247.201 159.524 248.03 159.524 249.101V256.952H156.13ZM170.096 257.262C169.111 257.262 168.256 257.098 167.531 256.77C166.805 256.442 166.244 255.976 165.847 255.371C165.449 254.749 165.251 254.032 165.251 253.22C165.251 252.443 165.423 251.752 165.769 251.148C166.114 250.526 166.65 250.008 167.375 249.593C168.101 249.179 169.016 248.885 170.122 248.712L174.734 247.961V250.552L170.77 251.225C170.096 251.346 169.595 251.562 169.267 251.873C168.939 252.184 168.775 252.59 168.775 253.091C168.775 253.575 168.956 253.963 169.319 254.257C169.699 254.533 170.165 254.671 170.718 254.671C171.426 254.671 172.048 254.525 172.583 254.231C173.136 253.92 173.559 253.497 173.853 252.961C174.164 252.426 174.319 251.839 174.319 251.2V247.572C174.319 246.968 174.077 246.467 173.594 246.069C173.127 245.655 172.506 245.447 171.728 245.447C171.003 245.447 170.355 245.646 169.785 246.043C169.232 246.423 168.826 246.933 168.567 247.572L165.795 246.225C166.071 245.482 166.503 244.843 167.09 244.307C167.695 243.755 168.403 243.323 169.215 243.012C170.027 242.701 170.908 242.546 171.858 242.546C173.015 242.546 174.034 242.761 174.915 243.193C175.796 243.608 176.478 244.195 176.962 244.955C177.463 245.698 177.713 246.57 177.713 247.572V256.952H174.501V254.542L175.226 254.49C174.863 255.095 174.432 255.604 173.931 256.019C173.43 256.416 172.86 256.727 172.221 256.952C171.581 257.159 170.873 257.262 170.096 257.262ZM180.851 256.952V237.338H184.245V256.952H180.851ZM192.269 256.952V237.649H198.565C200.603 237.649 202.374 238.063 203.877 238.892C205.397 239.704 206.571 240.835 207.4 242.286C208.229 243.72 208.644 245.387 208.644 247.287C208.644 249.17 208.229 250.845 207.4 252.314C206.571 253.765 205.397 254.905 203.877 255.734C202.374 256.546 200.603 256.952 198.565 256.952H192.269ZM195.793 253.842H198.643C199.955 253.842 201.087 253.575 202.037 253.039C203.004 252.486 203.756 251.726 204.291 250.759C204.827 249.774 205.094 248.617 205.094 247.287C205.094 245.94 204.827 244.782 204.291 243.815C203.756 242.848 203.004 242.096 202.037 241.561C201.087 241.026 199.955 240.758 198.643 240.758H195.793V253.842ZM211.163 256.952V242.856H214.558V256.952H211.163ZM211.163 241.276V237.649H214.558V241.276H211.163ZM221.967 257.262C220.982 257.262 220.127 257.098 219.401 256.77C218.676 256.442 218.115 255.976 217.717 255.371C217.32 254.749 217.121 254.032 217.121 253.22C217.121 252.443 217.294 251.752 217.64 251.148C217.985 250.526 218.521 250.008 219.246 249.593C219.972 249.179 220.887 248.885 221.992 248.712L226.604 247.961V250.552L222.64 251.225C221.967 251.346 221.466 251.562 221.137 251.873C220.809 252.184 220.645 252.59 220.645 253.091C220.645 253.575 220.827 253.963 221.189 254.257C221.569 254.533 222.036 254.671 222.588 254.671C223.297 254.671 223.918 254.525 224.454 254.231C225.007 253.92 225.43 253.497 225.724 252.961C226.034 252.426 226.19 251.839 226.19 251.2V247.572C226.19 246.968 225.948 246.467 225.464 246.069C224.998 245.655 224.376 245.447 223.599 245.447C222.873 245.447 222.226 245.646 221.656 246.043C221.103 246.423 220.697 246.933 220.438 247.572L217.666 246.225C217.942 245.482 218.374 244.843 218.961 244.307C219.566 243.755 220.274 243.323 221.086 243.012C221.897 242.701 222.778 242.546 223.728 242.546C224.886 242.546 225.905 242.761 226.786 243.193C227.667 243.608 228.349 244.195 228.833 244.955C229.334 245.698 229.584 246.57 229.584 247.572V256.952H226.371V254.542L227.097 254.49C226.734 255.095 226.302 255.604 225.801 256.019C225.3 256.416 224.73 256.727 224.091 256.952C223.452 257.159 222.744 257.262 221.967 257.262ZM239.562 262.652C238.508 262.652 237.532 262.479 236.634 262.134C235.735 261.788 234.958 261.304 234.302 260.683C233.663 260.078 233.196 259.361 232.903 258.532L236.064 257.34C236.271 257.997 236.677 258.523 237.281 258.921C237.903 259.335 238.663 259.543 239.562 259.543C240.252 259.543 240.857 259.413 241.375 259.154C241.911 258.895 242.325 258.515 242.619 258.014C242.913 257.53 243.059 256.943 243.059 256.252V253.039L243.707 253.816C243.223 254.663 242.576 255.302 241.764 255.734C240.952 256.166 240.028 256.382 238.992 256.382C237.679 256.382 236.504 256.079 235.468 255.475C234.431 254.87 233.619 254.041 233.032 252.987C232.445 251.934 232.151 250.75 232.151 249.438C232.151 248.108 232.445 246.924 233.032 245.888C233.619 244.852 234.423 244.04 235.442 243.452C236.461 242.848 237.618 242.546 238.914 242.546C239.967 242.546 240.892 242.77 241.686 243.219C242.498 243.651 243.172 244.282 243.707 245.111L243.241 245.966V242.856H246.454V256.252C246.454 257.478 246.151 258.575 245.547 259.543C244.959 260.51 244.148 261.27 243.111 261.823C242.092 262.375 240.909 262.652 239.562 262.652ZM239.406 253.246C240.132 253.246 240.762 253.091 241.297 252.78C241.85 252.452 242.282 252.003 242.593 251.433C242.904 250.863 243.059 250.206 243.059 249.464C243.059 248.738 242.895 248.09 242.567 247.52C242.256 246.933 241.824 246.475 241.272 246.147C240.736 245.819 240.114 245.655 239.406 245.655C238.698 245.655 238.059 245.819 237.489 246.147C236.919 246.475 236.47 246.933 236.141 247.52C235.83 248.09 235.675 248.738 235.675 249.464C235.675 250.189 235.83 250.837 236.141 251.407C236.47 251.977 236.91 252.426 237.463 252.754C238.033 253.082 238.681 253.246 239.406 253.246ZM249.624 256.952V242.856H252.81V245.629L252.551 245.137C252.88 244.29 253.415 243.651 254.158 243.219C254.918 242.77 255.799 242.546 256.801 242.546C257.837 242.546 258.752 242.77 259.547 243.219C260.359 243.668 260.989 244.299 261.439 245.111C261.888 245.905 262.112 246.829 262.112 247.883V256.952H258.718V248.686C258.718 248.064 258.597 247.529 258.355 247.08C258.113 246.631 257.777 246.285 257.345 246.043C256.93 245.784 256.438 245.655 255.868 245.655C255.315 245.655 254.823 245.784 254.391 246.043C253.959 246.285 253.622 246.631 253.38 247.08C253.139 247.529 253.018 248.064 253.018 248.686V256.952H249.624ZM271.874 257.262C270.493 257.262 269.232 256.943 268.092 256.304C266.969 255.665 266.071 254.792 265.397 253.687C264.74 252.581 264.412 251.32 264.412 249.904C264.412 248.488 264.74 247.227 265.397 246.121C266.071 245.016 266.969 244.143 268.092 243.504C269.214 242.865 270.475 242.546 271.874 242.546C273.256 242.546 274.509 242.865 275.631 243.504C276.754 244.143 277.644 245.016 278.3 246.121C278.974 247.209 279.311 248.47 279.311 249.904C279.311 251.32 278.974 252.581 278.3 253.687C277.626 254.792 276.728 255.665 275.605 256.304C274.483 256.943 273.239 257.262 271.874 257.262ZM271.874 254.153C272.634 254.153 273.299 253.972 273.869 253.609C274.457 253.246 274.914 252.745 275.243 252.106C275.588 251.45 275.761 250.716 275.761 249.904C275.761 249.075 275.588 248.349 275.243 247.728C274.914 247.088 274.457 246.588 273.869 246.225C273.299 245.845 272.634 245.655 271.874 245.655C271.097 245.655 270.415 245.845 269.827 246.225C269.24 246.588 268.774 247.088 268.428 247.728C268.1 248.349 267.936 249.075 267.936 249.904C267.936 250.716 268.1 251.45 268.428 252.106C268.774 252.745 269.24 253.246 269.827 253.609C270.415 253.972 271.097 254.153 271.874 254.153ZM287.248 257.262C285.745 257.262 284.432 256.908 283.31 256.2C282.204 255.475 281.444 254.499 281.03 253.272L283.569 252.055C283.931 252.849 284.432 253.471 285.071 253.92C285.728 254.369 286.453 254.594 287.248 254.594C287.87 254.594 288.362 254.456 288.725 254.179C289.088 253.903 289.269 253.54 289.269 253.091C289.269 252.815 289.191 252.59 289.036 252.417C288.898 252.227 288.699 252.072 288.44 251.951C288.198 251.813 287.93 251.7 287.637 251.614L285.331 250.966C284.139 250.621 283.232 250.094 282.61 249.386C282.005 248.678 281.703 247.84 281.703 246.873C281.703 246.009 281.919 245.257 282.351 244.618C282.8 243.962 283.413 243.452 284.191 243.09C284.985 242.727 285.892 242.546 286.911 242.546C288.241 242.546 289.416 242.865 290.435 243.504C291.454 244.143 292.179 245.042 292.611 246.199L290.02 247.417C289.778 246.778 289.373 246.268 288.803 245.888C288.233 245.508 287.593 245.318 286.885 245.318C286.315 245.318 285.866 245.447 285.538 245.707C285.21 245.966 285.046 246.303 285.046 246.717C285.046 246.976 285.115 247.201 285.253 247.391C285.391 247.581 285.581 247.736 285.823 247.857C286.082 247.978 286.376 248.09 286.704 248.194L288.958 248.868C290.115 249.213 291.005 249.731 291.627 250.422C292.266 251.113 292.585 251.96 292.585 252.961C292.585 253.808 292.361 254.559 291.912 255.216C291.463 255.855 290.841 256.356 290.046 256.718C289.252 257.081 288.319 257.262 287.248 257.262ZM295.194 256.952V242.856H298.588V256.952H295.194ZM295.194 241.276V237.649H298.588V241.276H295.194ZM307.085 257.262C305.583 257.262 304.27 256.908 303.147 256.2C302.041 255.475 301.281 254.499 300.867 253.272L303.406 252.055C303.769 252.849 304.27 253.471 304.909 253.92C305.565 254.369 306.291 254.594 307.085 254.594C307.707 254.594 308.199 254.456 308.562 254.179C308.925 253.903 309.106 253.54 309.106 253.091C309.106 252.815 309.029 252.59 308.873 252.417C308.735 252.227 308.536 252.072 308.277 251.951C308.035 251.813 307.768 251.7 307.474 251.614L305.168 250.966C303.976 250.621 303.069 250.094 302.447 249.386C301.843 248.678 301.541 247.84 301.541 246.873C301.541 246.009 301.756 245.257 302.188 244.618C302.637 243.962 303.251 243.452 304.028 243.09C304.822 242.727 305.729 242.546 306.748 242.546C308.079 242.546 309.253 242.865 310.272 243.504C311.291 244.143 312.017 245.042 312.449 246.199L309.858 247.417C309.616 246.778 309.21 246.268 308.64 245.888C308.07 245.508 307.431 245.318 306.723 245.318C306.153 245.318 305.703 245.447 305.375 245.707C305.047 245.966 304.883 246.303 304.883 246.717C304.883 246.976 304.952 247.201 305.09 247.391C305.228 247.581 305.418 247.736 305.66 247.857C305.919 247.978 306.213 248.09 306.541 248.194L308.795 248.868C309.953 249.213 310.842 249.731 311.464 250.422C312.103 251.113 312.423 251.96 312.423 252.961C312.423 253.808 312.198 254.559 311.749 255.216C311.3 255.855 310.678 256.356 309.884 256.718C309.089 257.081 308.156 257.262 307.085 257.262Z" fill="white"/>
<path d="M91.5727 287.817C91.4209 287.352 91.2208 286.936 90.9724 286.568C90.7285 286.195 90.4364 285.877 90.096 285.615C89.7601 285.353 89.3783 285.153 88.9504 285.015C88.5226 284.877 88.0533 284.808 87.5427 284.808C86.7054 284.808 85.944 285.024 85.2585 285.457C84.5731 285.889 84.0279 286.526 83.6231 287.368C83.2182 288.21 83.0158 289.243 83.0158 290.466C83.0158 291.69 83.2205 292.723 83.63 293.565C84.0394 294.407 84.5938 295.044 85.293 295.476C85.9923 295.909 86.779 296.125 87.6531 296.125C88.4628 296.125 89.1759 295.953 89.7923 295.608C90.4134 295.258 90.8964 294.766 91.2415 294.131C91.5911 293.491 91.7659 292.739 91.7659 291.874L92.2904 291.985H88.0395V290.466H93.4221V291.985C93.4221 293.149 93.1737 294.161 92.6768 295.021C92.1846 295.881 91.5037 296.548 90.6342 297.022C89.7693 297.491 88.7756 297.726 87.6531 297.726C86.4018 297.726 85.3022 297.432 84.3545 296.843C83.4114 296.254 82.6754 295.417 82.1463 294.331C81.6218 293.245 81.3596 291.957 81.3596 290.466C81.3596 289.349 81.5091 288.343 81.8082 287.451C82.1118 286.554 82.5396 285.79 83.0917 285.16C83.6438 284.53 84.297 284.046 85.0515 283.711C85.806 283.375 86.6364 283.207 87.5427 283.207C88.288 283.207 88.9826 283.32 89.6267 283.545C90.2754 283.766 90.8527 284.081 91.3588 284.49C91.8695 284.895 92.295 285.381 92.6354 285.946C92.9759 286.508 93.2105 287.131 93.3393 287.817H91.5727ZM100.576 297.754C99.5552 297.754 98.6742 297.528 97.9335 297.077C97.1974 296.622 96.6293 295.987 96.229 295.173C95.8334 294.354 95.6355 293.402 95.6355 292.316C95.6355 291.23 95.8334 290.273 96.229 289.445C96.6293 288.612 97.1859 287.964 97.899 287.499C98.6167 287.03 99.454 286.795 100.411 286.795C100.963 286.795 101.508 286.887 102.046 287.071C102.585 287.255 103.075 287.554 103.516 287.968C103.958 288.378 104.31 288.921 104.572 289.597C104.834 290.273 104.965 291.106 104.965 292.095V292.785H96.7949V291.377H103.309C103.309 290.779 103.19 290.246 102.95 289.776C102.716 289.307 102.38 288.937 101.943 288.665C101.51 288.394 101 288.258 100.411 288.258C99.7622 288.258 99.2009 288.419 98.7271 288.741C98.2578 289.059 97.8967 289.473 97.6437 289.983C97.3906 290.494 97.2641 291.042 97.2641 291.626V292.564C97.2641 293.365 97.4021 294.043 97.6782 294.6C97.9588 295.152 98.3475 295.573 98.8444 295.863C99.3412 296.148 99.9186 296.291 100.576 296.291C101.004 296.291 101.391 296.231 101.736 296.111C102.085 295.987 102.387 295.803 102.64 295.559C102.893 295.311 103.088 295.003 103.226 294.635L104.8 295.076C104.634 295.61 104.356 296.079 103.965 296.484C103.574 296.884 103.091 297.197 102.516 297.422C101.941 297.643 101.294 297.754 100.576 297.754ZM112.052 286.933V288.313H106.559V286.933H112.052ZM108.16 284.394H109.789V294.497C109.789 294.957 109.856 295.302 109.989 295.532C110.127 295.757 110.302 295.909 110.514 295.987C110.73 296.061 110.958 296.097 111.197 296.097C111.376 296.097 111.523 296.088 111.638 296.07C111.753 296.047 111.845 296.028 111.914 296.015L112.246 297.478C112.135 297.519 111.981 297.56 111.783 297.602C111.585 297.648 111.335 297.671 111.031 297.671C110.571 297.671 110.12 297.572 109.679 297.374C109.242 297.176 108.878 296.875 108.588 296.47C108.303 296.065 108.16 295.555 108.16 294.938V284.394ZM124.274 297.754C123.28 297.754 122.424 297.519 121.707 297.05C120.989 296.581 120.437 295.934 120.05 295.111C119.664 294.287 119.471 293.346 119.471 292.288C119.471 291.212 119.669 290.262 120.064 289.438C120.464 288.61 121.021 287.964 121.734 287.499C122.452 287.03 123.289 286.795 124.246 286.795C124.991 286.795 125.663 286.933 126.261 287.209C126.859 287.485 127.349 287.872 127.731 288.369C128.113 288.865 128.35 289.445 128.442 290.108H126.813C126.689 289.625 126.413 289.197 125.985 288.824C125.562 288.447 124.991 288.258 124.274 288.258C123.639 288.258 123.082 288.424 122.604 288.755C122.13 289.082 121.76 289.544 121.493 290.142C121.23 290.736 121.099 291.433 121.099 292.233C121.099 293.052 121.228 293.765 121.486 294.372C121.748 294.98 122.116 295.451 122.59 295.787C123.068 296.123 123.63 296.291 124.274 296.291C124.697 296.291 125.081 296.217 125.426 296.07C125.771 295.923 126.063 295.711 126.302 295.435C126.542 295.159 126.712 294.828 126.813 294.441H128.442C128.35 295.067 128.122 295.631 127.759 296.132C127.4 296.629 126.924 297.024 126.33 297.319C125.741 297.609 125.056 297.754 124.274 297.754ZM135.129 297.754C134.172 297.754 133.332 297.526 132.61 297.07C131.892 296.615 131.331 295.978 130.926 295.159C130.526 294.34 130.326 293.383 130.326 292.288C130.326 291.184 130.526 290.22 130.926 289.397C131.331 288.573 131.892 287.934 132.61 287.478C133.332 287.023 134.172 286.795 135.129 286.795C136.085 286.795 136.923 287.023 137.64 287.478C138.363 287.934 138.924 288.573 139.324 289.397C139.729 290.22 139.931 291.184 139.931 292.288C139.931 293.383 139.729 294.34 139.324 295.159C138.924 295.978 138.363 296.615 137.64 297.07C136.923 297.526 136.085 297.754 135.129 297.754ZM135.129 296.291C135.855 296.291 136.454 296.104 136.923 295.732C137.392 295.359 137.739 294.869 137.965 294.262C138.19 293.655 138.303 292.997 138.303 292.288C138.303 291.58 138.19 290.92 137.965 290.308C137.739 289.696 137.392 289.201 136.923 288.824C136.454 288.447 135.855 288.258 135.129 288.258C134.402 288.258 133.804 288.447 133.334 288.824C132.865 289.201 132.518 289.696 132.292 290.308C132.067 290.92 131.954 291.58 131.954 292.288C131.954 292.997 132.067 293.655 132.292 294.262C132.518 294.869 132.865 295.359 133.334 295.732C133.804 296.104 134.402 296.291 135.129 296.291ZM144.046 291.157V297.533H142.417V286.933H143.991V288.589H144.129C144.377 288.051 144.755 287.619 145.261 287.292C145.767 286.961 146.42 286.795 147.22 286.795C147.938 286.795 148.566 286.942 149.104 287.237C149.643 287.527 150.061 287.968 150.36 288.562C150.659 289.151 150.809 289.896 150.809 290.798V297.533H149.18V290.908C149.18 290.075 148.964 289.427 148.532 288.962C148.099 288.493 147.506 288.258 146.751 288.258C146.231 288.258 145.767 288.371 145.357 288.596C144.952 288.822 144.633 289.151 144.398 289.583C144.163 290.016 144.046 290.54 144.046 291.157ZM161.293 289.307L159.83 289.721C159.738 289.477 159.602 289.24 159.423 289.01C159.248 288.776 159.009 288.583 158.705 288.431C158.401 288.279 158.013 288.203 157.539 288.203C156.89 288.203 156.35 288.353 155.917 288.652C155.489 288.946 155.275 289.321 155.275 289.776C155.275 290.181 155.423 290.501 155.717 290.736C156.011 290.97 156.471 291.166 157.097 291.322L158.67 291.709C159.618 291.939 160.324 292.291 160.789 292.764C161.254 293.234 161.486 293.839 161.486 294.579C161.486 295.187 161.311 295.729 160.962 296.208C160.617 296.686 160.133 297.064 159.512 297.34C158.891 297.616 158.169 297.754 157.346 297.754C156.264 297.754 155.37 297.519 154.661 297.05C153.953 296.581 153.504 295.895 153.316 294.993L154.861 294.607C155.008 295.177 155.287 295.605 155.696 295.89C156.11 296.176 156.651 296.318 157.318 296.318C158.077 296.318 158.68 296.157 159.126 295.835C159.577 295.509 159.802 295.118 159.802 294.662C159.802 294.294 159.673 293.986 159.416 293.737C159.158 293.484 158.762 293.296 158.229 293.172L156.462 292.758C155.492 292.527 154.778 292.171 154.323 291.688C153.872 291.2 153.647 290.591 153.647 289.859C153.647 289.261 153.815 288.732 154.15 288.272C154.491 287.812 154.953 287.451 155.538 287.189C156.126 286.926 156.793 286.795 157.539 286.795C158.588 286.795 159.411 287.025 160.009 287.485C160.612 287.945 161.04 288.553 161.293 289.307ZM170.617 293.199V286.933H172.246V297.533H170.617V295.739H170.507C170.259 296.277 169.872 296.735 169.348 297.112C168.823 297.485 168.161 297.671 167.36 297.671C166.698 297.671 166.109 297.526 165.594 297.236C165.078 296.942 164.674 296.5 164.379 295.911C164.085 295.318 163.937 294.57 163.937 293.668V286.933H165.566V293.558C165.566 294.331 165.782 294.947 166.215 295.407C166.652 295.867 167.208 296.097 167.885 296.097C168.29 296.097 168.701 295.994 169.12 295.787C169.543 295.58 169.897 295.262 170.183 294.835C170.473 294.407 170.617 293.862 170.617 293.199ZM176.857 283.4V297.533H175.229V283.4H176.857ZM184.45 286.933V288.313H178.957V286.933H184.45ZM180.558 284.394H182.187V294.497C182.187 294.957 182.253 295.302 182.387 295.532C182.525 295.757 182.699 295.909 182.911 295.987C183.127 296.061 183.355 296.097 183.594 296.097C183.774 296.097 183.921 296.088 184.036 296.07C184.151 296.047 184.243 296.028 184.312 296.015L184.643 297.478C184.533 297.519 184.379 297.56 184.181 297.602C183.983 297.648 183.732 297.671 183.429 297.671C182.969 297.671 182.518 297.572 182.076 297.374C181.639 297.176 181.276 296.875 180.986 296.47C180.701 296.065 180.558 295.555 180.558 294.938V284.394ZM190.019 297.781C189.347 297.781 188.738 297.655 188.19 297.402C187.643 297.144 187.208 296.774 186.886 296.291C186.564 295.803 186.403 295.214 186.403 294.524C186.403 293.917 186.523 293.425 186.762 293.047C187.001 292.666 187.321 292.366 187.721 292.15C188.121 291.934 188.563 291.773 189.046 291.667C189.534 291.557 190.023 291.469 190.516 291.405C191.16 291.322 191.682 291.26 192.082 291.219C192.487 291.173 192.781 291.097 192.966 290.991C193.154 290.885 193.248 290.701 193.248 290.439V290.384C193.248 289.703 193.062 289.174 192.689 288.796C192.321 288.419 191.762 288.231 191.013 288.231C190.235 288.231 189.626 288.401 189.184 288.741C188.742 289.082 188.432 289.445 188.252 289.832L186.707 289.28C186.983 288.635 187.351 288.134 187.811 287.775C188.275 287.412 188.781 287.159 189.329 287.016C189.881 286.869 190.424 286.795 190.957 286.795C191.298 286.795 191.689 286.837 192.131 286.919C192.577 286.998 193.007 287.161 193.421 287.409C193.84 287.658 194.187 288.033 194.463 288.534C194.739 289.036 194.877 289.707 194.877 290.549V297.533H193.248V296.097H193.166C193.055 296.328 192.871 296.574 192.614 296.836C192.356 297.098 192.013 297.321 191.585 297.505C191.158 297.689 190.635 297.781 190.019 297.781ZM190.267 296.318C190.911 296.318 191.454 296.192 191.896 295.939C192.342 295.686 192.678 295.359 192.903 294.959C193.133 294.559 193.248 294.138 193.248 293.696V292.205C193.179 292.288 193.028 292.364 192.793 292.433C192.563 292.498 192.296 292.555 191.993 292.606C191.693 292.652 191.401 292.693 191.116 292.73C190.835 292.762 190.608 292.79 190.433 292.813C190.01 292.868 189.614 292.958 189.246 293.082C188.883 293.201 188.588 293.383 188.363 293.627C188.142 293.866 188.031 294.193 188.031 294.607C188.031 295.173 188.241 295.601 188.659 295.89C189.083 296.176 189.619 296.318 190.267 296.318ZM202.459 286.933V288.313H196.966V286.933H202.459ZM198.567 284.394H200.196V294.497C200.196 294.957 200.262 295.302 200.396 295.532C200.534 295.757 200.709 295.909 200.92 295.987C201.137 296.061 201.364 296.097 201.604 296.097C201.783 296.097 201.93 296.088 202.045 296.07C202.16 296.047 202.252 296.028 202.321 296.015L202.652 297.478C202.542 297.519 202.388 297.56 202.19 297.602C201.992 297.648 201.742 297.671 201.438 297.671C200.978 297.671 200.527 297.572 200.085 297.374C199.648 297.176 199.285 296.875 198.995 296.47C198.71 296.065 198.567 295.555 198.567 294.938V284.394ZM204.909 297.533V286.933H206.538V297.533H204.909ZM205.737 285.167C205.42 285.167 205.146 285.059 204.916 284.842C204.69 284.626 204.578 284.366 204.578 284.063C204.578 283.759 204.69 283.499 204.916 283.283C205.146 283.067 205.42 282.958 205.737 282.958C206.055 282.958 206.326 283.067 206.551 283.283C206.781 283.499 206.896 283.759 206.896 284.063C206.896 284.366 206.781 284.626 206.551 284.842C206.326 285.059 206.055 285.167 205.737 285.167ZM213.826 297.754C212.87 297.754 212.03 297.526 211.308 297.07C210.59 296.615 210.029 295.978 209.624 295.159C209.224 294.34 209.024 293.383 209.024 292.288C209.024 291.184 209.224 290.22 209.624 289.397C210.029 288.573 210.59 287.934 211.308 287.478C212.03 287.023 212.87 286.795 213.826 286.795C214.783 286.795 215.621 287.023 216.338 287.478C217.061 287.934 217.622 288.573 218.022 289.397C218.427 290.22 218.629 291.184 218.629 292.288C218.629 293.383 218.427 294.34 218.022 295.159C217.622 295.978 217.061 296.615 216.338 297.07C215.621 297.526 214.783 297.754 213.826 297.754ZM213.826 296.291C214.553 296.291 215.151 296.104 215.621 295.732C216.09 295.359 216.437 294.869 216.663 294.262C216.888 293.655 217.001 292.997 217.001 292.288C217.001 291.58 216.888 290.92 216.663 290.308C216.437 289.696 216.09 289.201 215.621 288.824C215.151 288.447 214.553 288.258 213.826 288.258C213.1 288.258 212.502 288.447 212.032 288.824C211.563 289.201 211.216 289.696 210.99 290.308C210.765 290.92 210.652 291.58 210.652 292.288C210.652 292.997 210.765 293.655 210.99 294.262C211.216 294.869 211.563 295.359 212.032 295.732C212.502 296.104 213.1 296.291 213.826 296.291ZM222.744 291.157V297.533H221.115V286.933H222.689V288.589H222.827C223.075 288.051 223.452 287.619 223.959 287.292C224.465 286.961 225.118 286.795 225.918 286.795C226.636 286.795 227.264 286.942 227.802 287.237C228.341 287.527 228.759 287.968 229.058 288.562C229.357 289.151 229.507 289.896 229.507 290.798V297.533H227.878V290.908C227.878 290.075 227.662 289.427 227.229 288.962C226.797 288.493 226.204 288.258 225.449 288.258C224.929 288.258 224.465 288.371 224.055 288.596C223.65 288.822 223.331 289.151 223.096 289.583C222.861 290.016 222.744 290.54 222.744 291.157ZM242.668 286.933V288.313H236.954V286.933H242.668ZM238.666 297.533V285.47C238.666 284.863 238.808 284.357 239.094 283.952C239.379 283.547 239.749 283.244 240.205 283.041C240.66 282.839 241.141 282.738 241.647 282.738C242.047 282.738 242.374 282.77 242.627 282.834C242.88 282.899 243.068 282.958 243.193 283.014L242.723 284.421C242.641 284.394 242.526 284.359 242.378 284.318C242.236 284.276 242.047 284.256 241.813 284.256C241.274 284.256 240.886 284.391 240.646 284.663C240.412 284.934 240.294 285.332 240.294 285.857V297.533H238.666ZM248.82 297.754C247.863 297.754 247.024 297.526 246.301 297.07C245.584 296.615 245.022 295.978 244.618 295.159C244.217 294.34 244.017 293.383 244.017 292.288C244.017 291.184 244.217 290.22 244.618 289.397C245.022 288.573 245.584 287.934 246.301 287.478C247.024 287.023 247.863 286.795 248.82 286.795C249.777 286.795 250.614 287.023 251.332 287.478C252.054 287.934 252.616 288.573 253.016 289.397C253.421 290.22 253.623 291.184 253.623 292.288C253.623 293.383 253.421 294.34 253.016 295.159C252.616 295.978 252.054 296.615 251.332 297.07C250.614 297.526 249.777 297.754 248.82 297.754ZM248.82 296.291C249.547 296.291 250.145 296.104 250.614 295.732C251.084 295.359 251.431 294.869 251.656 294.262C251.882 293.655 251.995 292.997 251.995 292.288C251.995 291.58 251.882 290.92 251.656 290.308C251.431 289.696 251.084 289.201 250.614 288.824C250.145 288.447 249.547 288.258 248.82 288.258C248.093 288.258 247.495 288.447 247.026 288.824C246.557 289.201 246.209 289.696 245.984 290.308C245.759 290.92 245.646 291.58 245.646 292.288C245.646 292.997 245.759 293.655 245.984 294.262C246.209 294.869 246.557 295.359 247.026 295.732C247.495 296.104 248.093 296.291 248.82 296.291ZM256.109 297.533V286.933H257.683V288.534H257.793C257.986 288.01 258.336 287.584 258.842 287.258C259.348 286.931 259.918 286.768 260.553 286.768C260.673 286.768 260.822 286.77 261.002 286.775C261.181 286.779 261.317 286.786 261.409 286.795V288.451C261.354 288.438 261.227 288.417 261.029 288.389C260.836 288.357 260.631 288.341 260.415 288.341C259.9 288.341 259.44 288.449 259.035 288.665C258.635 288.877 258.317 289.171 258.083 289.549C257.853 289.921 257.738 290.347 257.738 290.825V297.533H256.109ZM263.339 297.533V286.933H264.913V288.589H265.051C265.272 288.024 265.628 287.584 266.12 287.271C266.613 286.954 267.204 286.795 267.894 286.795C268.593 286.795 269.175 286.954 269.64 287.271C270.109 287.584 270.475 288.024 270.737 288.589H270.847C271.119 288.042 271.526 287.607 272.069 287.285C272.612 286.959 273.263 286.795 274.022 286.795C274.969 286.795 275.745 287.092 276.347 287.685C276.95 288.274 277.251 289.192 277.251 290.439V297.533H275.623V290.439C275.623 289.657 275.409 289.098 274.981 288.762C274.553 288.426 274.049 288.258 273.47 288.258C272.724 288.258 272.147 288.484 271.738 288.934C271.328 289.381 271.123 289.947 271.123 290.632V297.533H269.467V290.273C269.467 289.671 269.272 289.185 268.881 288.817C268.49 288.445 267.986 288.258 267.369 288.258C266.946 288.258 266.551 288.371 266.183 288.596C265.819 288.822 265.525 289.135 265.299 289.535C265.078 289.931 264.968 290.388 264.968 290.908V297.533H263.339ZM290 297.754C289.044 297.754 288.204 297.526 287.482 297.07C286.764 296.615 286.203 295.978 285.798 295.159C285.398 294.34 285.198 293.383 285.198 292.288C285.198 291.184 285.398 290.22 285.798 289.397C286.203 288.573 286.764 287.934 287.482 287.478C288.204 287.023 289.044 286.795 290 286.795C290.957 286.795 291.795 287.023 292.512 287.478C293.235 287.934 293.796 288.573 294.196 289.397C294.601 290.22 294.803 291.184 294.803 292.288C294.803 293.383 294.601 294.34 294.196 295.159C293.796 295.978 293.235 296.615 292.512 297.07C291.795 297.526 290.957 297.754 290 297.754ZM290 296.291C290.727 296.291 291.325 296.104 291.795 295.732C292.264 295.359 292.611 294.869 292.837 294.262C293.062 293.655 293.175 292.997 293.175 292.288C293.175 291.58 293.062 290.92 292.837 290.308C292.611 289.696 292.264 289.201 291.795 288.824C291.325 288.447 290.727 288.258 290 288.258C289.274 288.258 288.676 288.447 288.206 288.824C287.737 289.201 287.39 289.696 287.164 290.308C286.939 290.92 286.826 291.58 286.826 292.288C286.826 292.997 286.939 293.655 287.164 294.262C287.39 294.869 287.737 295.359 288.206 295.732C288.676 296.104 289.274 296.291 290 296.291ZM303.969 293.199V286.933H305.598V297.533H303.969V295.739H303.859C303.61 296.277 303.224 296.735 302.7 297.112C302.175 297.485 301.513 297.671 300.712 297.671C300.05 297.671 299.461 297.526 298.946 297.236C298.43 296.942 298.025 296.5 297.731 295.911C297.437 295.318 297.289 294.57 297.289 293.668V286.933H298.918V293.558C298.918 294.331 299.134 294.947 299.567 295.407C300.004 295.867 300.56 296.097 301.237 296.097C301.641 296.097 302.053 295.994 302.472 295.787C302.895 295.58 303.249 295.262 303.535 294.835C303.824 294.407 303.969 293.862 303.969 293.199ZM308.581 297.533V286.933H310.154V288.534H310.265C310.458 288.01 310.807 287.584 311.313 287.258C311.82 286.931 312.39 286.768 313.025 286.768C313.144 286.768 313.294 286.77 313.473 286.775C313.653 286.779 313.789 286.786 313.881 286.795V288.451C313.825 288.438 313.699 288.417 313.501 288.389C313.308 288.357 313.103 288.341 312.887 288.341C312.372 288.341 311.912 288.449 311.507 288.665C311.106 288.877 310.789 289.171 310.554 289.549C310.324 289.921 310.209 290.347 310.209 290.825V297.533H308.581ZM102.617 311.817C102.466 311.352 102.265 310.936 102.017 310.568C101.773 310.195 101.481 309.877 101.141 309.615C100.805 309.353 100.423 309.153 99.9951 309.015C99.5673 308.877 99.098 308.808 98.5873 308.808C97.7501 308.808 96.9887 309.024 96.3032 309.457C95.6177 309.889 95.0726 310.526 94.6677 311.368C94.2629 312.21 94.0604 313.243 94.0604 314.466C94.0604 315.69 94.2652 316.723 94.6746 317.565C95.0841 318.407 95.6384 319.044 96.3377 319.476C97.037 319.909 97.8237 320.125 98.6978 320.125C99.5074 320.125 100.221 319.953 100.837 319.608C101.458 319.258 101.941 318.766 102.286 318.131C102.636 317.491 102.811 316.739 102.811 315.874L103.335 315.985H99.0842V314.466H104.467V315.985C104.467 317.149 104.218 318.161 103.722 319.021C103.229 319.881 102.548 320.548 101.679 321.022C100.814 321.491 99.8203 321.726 98.6978 321.726C97.4464 321.726 96.3469 321.432 95.3992 320.843C94.4561 320.254 93.72 319.417 93.191 318.331C92.6665 317.245 92.4043 315.957 92.4043 314.466C92.4043 313.349 92.5538 312.343 92.8528 311.451C93.1565 310.554 93.5843 309.79 94.1364 309.16C94.6884 308.53 95.3417 308.046 96.0962 307.711C96.8507 307.375 97.681 307.207 98.5873 307.207C99.3326 307.207 100.027 307.32 100.671 307.545C101.32 307.766 101.897 308.081 102.403 308.49C102.914 308.895 103.34 309.381 103.68 309.946C104.021 310.508 104.255 311.131 104.384 311.817H102.617ZM111.621 321.754C110.6 321.754 109.719 321.528 108.978 321.077C108.242 320.622 107.674 319.987 107.274 319.173C106.878 318.354 106.68 317.402 106.68 316.316C106.68 315.23 106.878 314.273 107.274 313.445C107.674 312.612 108.231 311.964 108.944 311.499C109.661 311.03 110.499 310.795 111.456 310.795C112.008 310.795 112.553 310.887 113.091 311.071C113.629 311.255 114.119 311.554 114.561 311.968C115.003 312.378 115.354 312.921 115.617 313.597C115.879 314.273 116.01 315.106 116.01 316.095V316.785H107.84V315.377H114.354C114.354 314.779 114.234 314.246 113.995 313.776C113.76 313.307 113.425 312.937 112.987 312.665C112.555 312.394 112.044 312.258 111.456 312.258C110.807 312.258 110.246 312.419 109.772 312.741C109.302 313.059 108.941 313.473 108.688 313.983C108.435 314.494 108.309 315.042 108.309 315.626V316.564C108.309 317.365 108.447 318.043 108.723 318.6C109.003 319.152 109.392 319.573 109.889 319.863C110.386 320.148 110.963 320.291 111.621 320.291C112.049 320.291 112.435 320.231 112.78 320.111C113.13 319.987 113.431 319.803 113.684 319.559C113.937 319.311 114.133 319.003 114.271 318.635L115.844 319.076C115.679 319.61 115.4 320.079 115.009 320.484C114.618 320.884 114.135 321.197 113.56 321.422C112.985 321.643 112.339 321.754 111.621 321.754ZM120.116 315.157V321.533H118.487V310.933H120.061V312.589H120.199C120.447 312.051 120.824 311.619 121.331 311.292C121.837 310.961 122.49 310.795 123.29 310.795C124.008 310.795 124.636 310.942 125.174 311.237C125.712 311.527 126.131 311.968 126.43 312.562C126.729 313.151 126.879 313.896 126.879 314.798V321.533H125.25V314.908C125.25 314.075 125.034 313.427 124.601 312.962C124.169 312.493 123.576 312.258 122.821 312.258C122.301 312.258 121.837 312.371 121.427 312.596C121.022 312.822 120.703 313.151 120.468 313.583C120.233 314.016 120.116 314.54 120.116 315.157ZM134.299 321.754C133.277 321.754 132.396 321.528 131.656 321.077C130.92 320.622 130.352 319.987 129.951 319.173C129.556 318.354 129.358 317.402 129.358 316.316C129.358 315.23 129.556 314.273 129.951 313.445C130.352 312.612 130.908 311.964 131.621 311.499C132.339 311.03 133.176 310.795 134.133 310.795C134.685 310.795 135.23 310.887 135.769 311.071C136.307 311.255 136.797 311.554 137.238 311.968C137.68 312.378 138.032 312.921 138.294 313.597C138.557 314.273 138.688 315.106 138.688 316.095V316.785H130.517V315.377H137.031C137.031 314.779 136.912 314.246 136.673 313.776C136.438 313.307 136.102 312.937 135.665 312.665C135.233 312.394 134.722 312.258 134.133 312.258C133.484 312.258 132.923 312.419 132.449 312.741C131.98 313.059 131.619 313.473 131.366 313.983C131.113 314.494 130.986 315.042 130.986 315.626V316.564C130.986 317.365 131.124 318.043 131.4 318.6C131.681 319.152 132.07 319.573 132.567 319.863C133.064 320.148 133.641 320.291 134.299 320.291C134.727 320.291 135.113 320.231 135.458 320.111C135.808 319.987 136.109 319.803 136.362 319.559C136.615 319.311 136.811 319.003 136.949 318.635L138.522 319.076C138.356 319.61 138.078 320.079 137.687 320.484C137.296 320.884 136.813 321.197 136.238 321.422C135.663 321.643 135.016 321.754 134.299 321.754ZM141.165 321.533V310.933H142.738V312.534H142.849C143.042 312.01 143.392 311.584 143.898 311.258C144.404 310.931 144.974 310.768 145.609 310.768C145.729 310.768 145.878 310.77 146.058 310.775C146.237 310.779 146.373 310.786 146.465 310.795V312.451C146.41 312.438 146.283 312.417 146.085 312.389C145.892 312.357 145.687 312.341 145.471 312.341C144.956 312.341 144.496 312.449 144.091 312.665C143.691 312.877 143.373 313.171 143.139 313.549C142.909 313.921 142.794 314.347 142.794 314.825V321.533H141.165ZM151.514 321.781C150.843 321.781 150.233 321.655 149.686 321.402C149.138 321.144 148.704 320.774 148.381 320.291C148.059 319.803 147.898 319.214 147.898 318.524C147.898 317.917 148.018 317.425 148.257 317.047C148.496 316.666 148.816 316.366 149.216 316.15C149.617 315.934 150.058 315.773 150.541 315.667C151.029 315.557 151.519 315.469 152.011 315.405C152.655 315.322 153.177 315.26 153.578 315.219C153.983 315.173 154.277 315.097 154.461 314.991C154.65 314.885 154.744 314.701 154.744 314.439V314.384C154.744 313.703 154.558 313.174 154.185 312.796C153.817 312.419 153.258 312.231 152.508 312.231C151.731 312.231 151.121 312.401 150.679 312.741C150.238 313.082 149.927 313.445 149.748 313.832L148.202 313.28C148.478 312.635 148.846 312.134 149.306 311.775C149.771 311.412 150.277 311.159 150.824 311.016C151.376 310.869 151.919 310.795 152.453 310.795C152.793 310.795 153.184 310.837 153.626 310.919C154.072 310.998 154.502 311.161 154.916 311.409C155.335 311.658 155.682 312.033 155.958 312.534C156.235 313.036 156.373 313.707 156.373 314.549V321.533H154.744V320.097H154.661C154.551 320.328 154.367 320.574 154.109 320.836C153.851 321.098 153.509 321.321 153.081 321.505C152.653 321.689 152.131 321.781 151.514 321.781ZM151.763 320.318C152.407 320.318 152.95 320.192 153.391 319.939C153.838 319.686 154.174 319.359 154.399 318.959C154.629 318.559 154.744 318.138 154.744 317.696V316.205C154.675 316.288 154.523 316.364 154.289 316.433C154.058 316.498 153.792 316.555 153.488 316.606C153.189 316.652 152.897 316.693 152.612 316.73C152.331 316.762 152.103 316.79 151.928 316.813C151.505 316.868 151.11 316.958 150.742 317.082C150.378 317.201 150.084 317.383 149.858 317.627C149.637 317.866 149.527 318.193 149.527 318.607C149.527 319.173 149.736 319.601 150.155 319.89C150.578 320.176 151.114 320.318 151.763 320.318ZM160.974 307.4V321.533H159.345V307.4H160.974ZM174.004 321.533H169.643V307.4H174.197C175.568 307.4 176.741 307.683 177.717 308.249C178.692 308.81 179.439 309.618 179.959 310.671C180.479 311.72 180.739 312.976 180.739 314.439C180.739 315.911 180.477 317.178 179.952 318.241C179.428 319.299 178.664 320.114 177.661 320.684C176.658 321.25 175.439 321.533 174.004 321.533ZM171.354 320.015H173.894C175.062 320.015 176.03 319.789 176.799 319.338C177.567 318.888 178.14 318.246 178.517 317.413C178.894 316.58 179.083 315.589 179.083 314.439C179.083 313.298 178.897 312.316 178.524 311.492C178.151 310.664 177.595 310.029 176.854 309.588C176.113 309.141 175.191 308.918 174.087 308.918H171.354V320.015ZM183.389 321.533V310.933H185.018V321.533H183.389ZM184.217 309.167C183.9 309.167 183.626 309.059 183.396 308.842C183.17 308.626 183.058 308.366 183.058 308.063C183.058 307.759 183.17 307.499 183.396 307.283C183.626 307.067 183.9 306.958 184.217 306.958C184.535 306.958 184.806 307.067 185.031 307.283C185.261 307.499 185.376 307.759 185.376 308.063C185.376 308.366 185.261 308.626 185.031 308.842C184.806 309.059 184.535 309.167 184.217 309.167ZM191.12 321.781C190.448 321.781 189.838 321.655 189.291 321.402C188.743 321.144 188.309 320.774 187.987 320.291C187.665 319.803 187.504 319.214 187.504 318.524C187.504 317.917 187.623 317.425 187.862 317.047C188.102 316.666 188.421 316.366 188.822 316.15C189.222 315.934 189.664 315.773 190.147 315.667C190.634 315.557 191.124 315.469 191.616 315.405C192.26 315.322 192.783 315.26 193.183 315.219C193.588 315.173 193.882 315.097 194.066 314.991C194.255 314.885 194.349 314.701 194.349 314.439V314.384C194.349 313.703 194.163 313.174 193.79 312.796C193.422 312.419 192.863 312.231 192.113 312.231C191.336 312.231 190.726 312.401 190.285 312.741C189.843 313.082 189.532 313.445 189.353 313.832L187.807 313.28C188.083 312.635 188.451 312.134 188.911 311.775C189.376 311.412 189.882 311.159 190.429 311.016C190.982 310.869 191.524 310.795 192.058 310.795C192.399 310.795 192.79 310.837 193.231 310.919C193.677 310.998 194.108 311.161 194.522 311.409C194.94 311.658 195.288 312.033 195.564 312.534C195.84 313.036 195.978 313.707 195.978 314.549V321.533H194.349V320.097H194.266C194.156 320.328 193.972 320.574 193.714 320.836C193.457 321.098 193.114 321.321 192.686 321.505C192.258 321.689 191.736 321.781 191.12 321.781ZM191.368 320.318C192.012 320.318 192.555 320.192 192.997 319.939C193.443 319.686 193.779 319.359 194.004 318.959C194.234 318.559 194.349 318.138 194.349 317.696V316.205C194.28 316.288 194.128 316.364 193.894 316.433C193.664 316.498 193.397 316.555 193.093 316.606C192.794 316.652 192.502 316.693 192.217 316.73C191.936 316.762 191.708 316.79 191.534 316.813C191.11 316.868 190.715 316.958 190.347 317.082C189.983 317.201 189.689 317.383 189.463 317.627C189.243 317.866 189.132 318.193 189.132 318.607C189.132 319.173 189.341 319.601 189.76 319.89C190.183 320.176 190.719 320.318 191.368 320.318ZM203.229 325.728C202.442 325.728 201.766 325.627 201.2 325.425C200.634 325.227 200.162 324.965 199.785 324.638C199.413 324.316 199.116 323.971 198.895 323.603L200.192 322.692C200.34 322.885 200.526 323.106 200.751 323.355C200.977 323.608 201.285 323.826 201.676 324.01C202.072 324.199 202.589 324.293 203.229 324.293C204.084 324.293 204.791 324.086 205.347 323.672C205.904 323.258 206.182 322.609 206.182 321.726V319.573H206.044C205.925 319.766 205.754 320.005 205.534 320.291C205.317 320.571 205.004 320.822 204.595 321.043C204.19 321.259 203.643 321.367 202.953 321.367C202.097 321.367 201.329 321.165 200.648 320.76C199.972 320.355 199.436 319.766 199.04 318.993C198.649 318.22 198.453 317.282 198.453 316.178C198.453 315.092 198.644 314.147 199.026 313.342C199.408 312.532 199.939 311.906 200.62 311.465C201.301 311.018 202.088 310.795 202.98 310.795C203.67 310.795 204.218 310.91 204.623 311.14C205.032 311.366 205.345 311.623 205.561 311.913C205.782 312.198 205.952 312.433 206.072 312.617H206.237V310.933H207.811V321.836C207.811 322.747 207.604 323.488 207.19 324.059C206.78 324.634 206.228 325.055 205.534 325.321C204.843 325.593 204.075 325.728 203.229 325.728ZM203.173 319.904C203.827 319.904 204.379 319.755 204.83 319.456C205.28 319.157 205.623 318.727 205.858 318.165C206.092 317.604 206.21 316.932 206.21 316.15C206.21 315.387 206.095 314.713 205.865 314.128C205.635 313.544 205.294 313.086 204.843 312.755C204.393 312.424 203.836 312.258 203.173 312.258C202.483 312.258 201.908 312.433 201.448 312.783C200.993 313.132 200.65 313.602 200.42 314.19C200.195 314.779 200.082 315.433 200.082 316.15C200.082 316.886 200.197 317.537 200.427 318.103C200.662 318.664 201.007 319.106 201.462 319.428C201.922 319.746 202.493 319.904 203.173 319.904ZM212.42 315.157V321.533H210.792V310.933H212.365V312.589H212.503C212.752 312.051 213.129 311.619 213.635 311.292C214.141 310.961 214.794 310.795 215.595 310.795C216.312 310.795 216.94 310.942 217.479 311.237C218.017 311.527 218.436 311.968 218.735 312.562C219.034 313.151 219.183 313.896 219.183 314.798V321.533H217.555V314.908C217.555 314.075 217.338 313.427 216.906 312.962C216.474 312.493 215.88 312.258 215.126 312.258C214.606 312.258 214.141 312.371 213.732 312.596C213.327 312.822 213.007 313.151 212.772 313.583C212.538 314.016 212.42 314.54 212.42 315.157ZM226.465 321.754C225.508 321.754 224.669 321.526 223.946 321.07C223.229 320.615 222.668 319.978 222.263 319.159C221.862 318.34 221.662 317.383 221.662 316.288C221.662 315.184 221.862 314.22 222.263 313.397C222.668 312.573 223.229 311.934 223.946 311.478C224.669 311.023 225.508 310.795 226.465 310.795C227.422 310.795 228.259 311.023 228.977 311.478C229.699 311.934 230.261 312.573 230.661 313.397C231.066 314.22 231.268 315.184 231.268 316.288C231.268 317.383 231.066 318.34 230.661 319.159C230.261 319.978 229.699 320.615 228.977 321.07C228.259 321.526 227.422 321.754 226.465 321.754ZM226.465 320.291C227.192 320.291 227.79 320.104 228.259 319.732C228.729 319.359 229.076 318.869 229.301 318.262C229.527 317.655 229.64 316.997 229.64 316.288C229.64 315.58 229.527 314.92 229.301 314.308C229.076 313.696 228.729 313.201 228.259 312.824C227.79 312.447 227.192 312.258 226.465 312.258C225.738 312.258 225.14 312.447 224.671 312.824C224.202 313.201 223.854 313.696 223.629 314.308C223.404 314.92 223.291 315.58 223.291 316.288C223.291 316.997 223.404 317.655 223.629 318.262C223.854 318.869 224.202 319.359 224.671 319.732C225.14 320.104 225.738 320.291 226.465 320.291ZM241.262 313.307L239.799 313.721C239.707 313.477 239.571 313.24 239.392 313.01C239.217 312.776 238.978 312.583 238.674 312.431C238.371 312.279 237.982 312.203 237.508 312.203C236.859 312.203 236.319 312.353 235.886 312.652C235.459 312.946 235.245 313.321 235.245 313.776C235.245 314.181 235.392 314.501 235.686 314.736C235.981 314.97 236.441 315.166 237.067 315.322L238.64 315.709C239.588 315.939 240.294 316.291 240.758 316.764C241.223 317.234 241.455 317.839 241.455 318.579C241.455 319.187 241.281 319.729 240.931 320.208C240.586 320.686 240.103 321.064 239.482 321.34C238.861 321.616 238.138 321.754 237.315 321.754C236.234 321.754 235.339 321.519 234.631 321.05C233.922 320.581 233.474 319.895 233.285 318.993L234.831 318.607C234.978 319.177 235.256 319.605 235.666 319.89C236.08 320.176 236.62 320.318 237.287 320.318C238.046 320.318 238.649 320.157 239.095 319.835C239.546 319.509 239.772 319.118 239.772 318.662C239.772 318.294 239.643 317.986 239.385 317.737C239.128 317.484 238.732 317.296 238.198 317.172L236.432 316.758C235.461 316.527 234.748 316.171 234.292 315.688C233.842 315.2 233.616 314.591 233.616 313.859C233.616 313.261 233.784 312.732 234.12 312.272C234.46 311.812 234.923 311.451 235.507 311.189C236.096 310.926 236.763 310.795 237.508 310.795C238.557 310.795 239.381 311.025 239.979 311.485C240.581 311.945 241.009 312.553 241.262 313.307ZM243.907 321.533V310.933H245.535V321.533H243.907ZM244.735 309.167C244.418 309.167 244.144 309.059 243.914 308.842C243.688 308.626 243.576 308.366 243.576 308.063C243.576 307.759 243.688 307.499 243.914 307.283C244.144 307.067 244.418 306.958 244.735 306.958C245.052 306.958 245.324 307.067 245.549 307.283C245.779 307.499 245.894 307.759 245.894 308.063C245.894 308.366 245.779 308.626 245.549 308.842C245.324 309.059 245.052 309.167 244.735 309.167ZM256.026 313.307L254.563 313.721C254.471 313.477 254.336 313.24 254.156 313.01C253.981 312.776 253.742 312.583 253.439 312.431C253.135 312.279 252.746 312.203 252.272 312.203C251.624 312.203 251.083 312.353 250.651 312.652C250.223 312.946 250.009 313.321 250.009 313.776C250.009 314.181 250.156 314.501 250.451 314.736C250.745 314.97 251.205 315.166 251.831 315.322L253.404 315.709C254.352 315.939 255.058 316.291 255.523 316.764C255.987 317.234 256.22 317.839 256.22 318.579C256.22 319.187 256.045 319.729 255.695 320.208C255.35 320.686 254.867 321.064 254.246 321.34C253.625 321.616 252.903 321.754 252.079 321.754C250.998 321.754 250.103 321.519 249.395 321.05C248.686 320.581 248.238 319.895 248.049 318.993L249.595 318.607C249.742 319.177 250.02 319.605 250.43 319.89C250.844 320.176 251.384 320.318 252.052 320.318C252.811 320.318 253.413 320.157 253.86 319.835C254.31 319.509 254.536 319.118 254.536 318.662C254.536 318.294 254.407 317.986 254.149 317.737C253.892 317.484 253.496 317.296 252.962 317.172L251.196 316.758C250.225 316.527 249.512 316.171 249.057 315.688C248.606 315.2 248.38 314.591 248.38 313.859C248.38 313.261 248.548 312.732 248.884 312.272C249.224 311.812 249.687 311.451 250.271 311.189C250.86 310.926 251.527 310.795 252.272 310.795C253.321 310.795 254.145 311.025 254.743 311.485C255.345 311.945 255.773 312.553 256.026 313.307ZM268.746 310.933V312.313H263.253V310.933H268.746ZM264.854 308.394H266.483V318.497C266.483 318.957 266.549 319.302 266.683 319.532C266.821 319.757 266.996 319.909 267.207 319.987C267.424 320.061 267.651 320.097 267.89 320.097C268.07 320.097 268.217 320.088 268.332 320.07C268.447 320.047 268.539 320.028 268.608 320.015L268.939 321.478C268.829 321.519 268.675 321.56 268.477 321.602C268.279 321.648 268.028 321.671 267.725 321.671C267.265 321.671 266.814 321.572 266.372 321.374C265.935 321.176 265.572 320.875 265.282 320.47C264.997 320.065 264.854 319.555 264.854 318.938V308.394ZM275.526 321.754C274.505 321.754 273.624 321.528 272.883 321.077C272.147 320.622 271.579 319.987 271.179 319.173C270.783 318.354 270.585 317.402 270.585 316.316C270.585 315.23 270.783 314.273 271.179 313.445C271.579 312.612 272.136 311.964 272.849 311.499C273.566 311.03 274.404 310.795 275.361 310.795C275.913 310.795 276.458 310.887 276.996 311.071C277.534 311.255 278.024 311.554 278.466 311.968C278.908 312.378 279.259 312.921 279.522 313.597C279.784 314.273 279.915 315.106 279.915 316.095V316.785H271.745V315.377H278.259C278.259 314.779 278.139 314.246 277.9 313.776C277.665 313.307 277.33 312.937 276.893 312.665C276.46 312.394 275.949 312.258 275.361 312.258C274.712 312.258 274.151 312.419 273.677 312.741C273.208 313.059 272.846 313.473 272.593 313.983C272.34 314.494 272.214 315.042 272.214 315.626V316.564C272.214 317.365 272.352 318.043 272.628 318.6C272.908 319.152 273.297 319.573 273.794 319.863C274.291 320.148 274.868 320.291 275.526 320.291C275.954 320.291 276.34 320.231 276.685 320.111C277.035 319.987 277.336 319.803 277.589 319.559C277.843 319.311 278.038 319.003 278.176 318.635L279.749 319.076C279.584 319.61 279.305 320.079 278.914 320.484C278.523 320.884 278.04 321.197 277.465 321.422C276.89 321.643 276.244 321.754 275.526 321.754ZM285.512 321.781C284.84 321.781 284.23 321.655 283.683 321.402C283.135 321.144 282.701 320.774 282.379 320.291C282.057 319.803 281.896 319.214 281.896 318.524C281.896 317.917 282.015 317.425 282.254 317.047C282.494 316.666 282.813 316.366 283.214 316.15C283.614 315.934 284.055 315.773 284.539 315.667C285.026 315.557 285.516 315.469 286.008 315.405C286.652 315.322 287.175 315.26 287.575 315.219C287.98 315.173 288.274 315.097 288.458 314.991C288.647 314.885 288.741 314.701 288.741 314.439V314.384C288.741 313.703 288.555 313.174 288.182 312.796C287.814 312.419 287.255 312.231 286.505 312.231C285.728 312.231 285.118 312.401 284.677 312.741C284.235 313.082 283.924 313.445 283.745 313.832L282.199 313.28C282.475 312.635 282.843 312.134 283.303 311.775C283.768 311.412 284.274 311.159 284.821 311.016C285.374 310.869 285.916 310.795 286.45 310.795C286.79 310.795 287.182 310.837 287.623 310.919C288.069 310.998 288.5 311.161 288.914 311.409C289.332 311.658 289.68 312.033 289.956 312.534C290.232 313.036 290.37 313.707 290.37 314.549V321.533H288.741V320.097H288.658C288.548 320.328 288.364 320.574 288.106 320.836C287.849 321.098 287.506 321.321 287.078 321.505C286.65 321.689 286.128 321.781 285.512 321.781ZM285.76 320.318C286.404 320.318 286.947 320.192 287.389 319.939C287.835 319.686 288.171 319.359 288.396 318.959C288.626 318.559 288.741 318.138 288.741 317.696V316.205C288.672 316.288 288.52 316.364 288.286 316.433C288.056 316.498 287.789 316.555 287.485 316.606C287.186 316.652 286.894 316.693 286.609 316.73C286.328 316.762 286.1 316.79 285.926 316.813C285.502 316.868 285.107 316.958 284.739 317.082C284.375 317.201 284.081 317.383 283.855 317.627C283.635 317.866 283.524 318.193 283.524 318.607C283.524 319.173 283.733 319.601 284.152 319.89C284.575 320.176 285.111 320.318 285.76 320.318ZM293.342 321.533V310.933H294.916V312.589H295.054C295.274 312.024 295.631 311.584 296.123 311.271C296.615 310.954 297.207 310.795 297.897 310.795C298.596 310.795 299.178 310.954 299.643 311.271C300.112 311.584 300.478 312.024 300.74 312.589H300.85C301.122 312.042 301.529 311.607 302.072 311.285C302.614 310.959 303.265 310.795 304.025 310.795C304.972 310.795 305.747 311.092 306.35 311.685C306.953 312.274 307.254 313.192 307.254 314.439V321.533H305.626V314.439C305.626 313.657 305.412 313.098 304.984 312.762C304.556 312.426 304.052 312.258 303.472 312.258C302.727 312.258 302.15 312.484 301.74 312.934C301.331 313.381 301.126 313.947 301.126 314.632V321.533H299.47V314.273C299.47 313.671 299.275 313.185 298.883 312.817C298.492 312.445 297.989 312.258 297.372 312.258C296.949 312.258 296.553 312.371 296.185 312.596C295.822 312.822 295.527 313.135 295.302 313.535C295.081 313.931 294.971 314.388 294.971 314.908V321.533H293.342Z" fill="white"/>
</g>
<defs>
<filter id="filter0_d_1_275" x="-7.62939e-06" y="-7.62939e-06" width="399.986" height="430.173" filterUnits="userSpaceOnUse" color-interpolation-filters="sRGB">
<feFlood flood-opacity="0" result="BackgroundImageFix"/>
<feColorMatrix in="SourceAlpha" type="matrix" values="0 0 0 0 0 0 0 0 0 0 0 0 0 0 0 0 0 0 127 0" result="hardAlpha"/>
<feOffset dy="6.47751"/>
<feGaussianBlur stdDeviation="28.3391"/>
<feComposite in2="hardAlpha" operator="out"/>
<feColorMatrix type="matrix" values="0 0 0 0 0 0 0 0 0 0.52549 0 0 0 0 1 0 0 0 0.1 0"/>
<feBlend mode="normal" in2="BackgroundImageFix" result="effect1_dropShadow_1_275"/>
<feBlend mode="normal" in="SourceGraphic" in2="effect1_dropShadow_1_275" result="shape"/>
</filter>
</defs>
</svg>
