<svg width="397" height="427" viewBox="0 0 397 427" fill="none" xmlns="http://www.w3.org/2000/svg">
<g filter="url(#filter0_d_1_304)">
<rect x="54.8969" y="48.4194" width="286.63" height="316.817" rx="25.91" fill="white" shape-rendering="crispEdges"/>
<rect x="141.534" y="88.9038" width="113.356" height="113.356" rx="25.91" fill="#F6F9FE"/>
<path d="M174.637 150.397H190.694C193.164 150.397 195.635 154.028 198.105 154.028C200.24 154.028 204.221 152.22 206.059 155.636C206.64 156.716 205.864 157.95 204.713 158.418C202.048 159.501 199.079 160.972 198.105 161.29L190.694 158.869M206.751 156.449L218.055 152.018C218.741 151.749 219.488 151.661 220.219 151.764C222.805 152.126 223.536 155.445 221.332 156.819L202.449 168.593C201.257 169.336 199.798 169.544 198.44 169.164L174.637 162.5M191.929 133.453V139.505C191.929 142.847 194.694 145.556 198.105 145.556C201.516 145.556 204.281 142.847 204.281 139.505V133.453M191.929 133.453V127.402C191.929 124.059 194.694 121.35 198.105 121.35C201.516 121.35 204.281 124.059 204.281 127.402V133.453M191.929 133.453H204.281" stroke="#0086FF" stroke-width="2.5" stroke-linecap="round" stroke-linejoin="round"/>
<path d="M123.49 255.17V238.976H118.489V235.867H131.963V238.976H127.04V255.17H123.49ZM132.284 255.17V241.075H135.471V244.21L135.212 243.744C135.541 242.69 136.05 241.956 136.741 241.542C137.449 241.127 138.296 240.92 139.28 240.92H140.109V243.925H138.892C137.924 243.925 137.147 244.228 136.56 244.832C135.972 245.419 135.679 246.249 135.679 247.319V255.17H132.284ZM146.251 255.481C145.266 255.481 144.411 255.317 143.686 254.989C142.96 254.661 142.399 254.194 142.001 253.59C141.604 252.968 141.405 252.251 141.405 251.439C141.405 250.662 141.578 249.971 141.924 249.366C142.269 248.745 142.805 248.226 143.53 247.812C144.256 247.397 145.171 247.104 146.277 246.931L150.889 246.179V248.77L146.924 249.444C146.251 249.565 145.75 249.781 145.421 250.092C145.093 250.403 144.929 250.809 144.929 251.31C144.929 251.793 145.111 252.182 145.473 252.476C145.853 252.752 146.32 252.89 146.872 252.89C147.581 252.89 148.202 252.743 148.738 252.45C149.291 252.139 149.714 251.716 150.008 251.18C150.318 250.645 150.474 250.057 150.474 249.418V245.791C150.474 245.186 150.232 244.685 149.748 244.288C149.282 243.873 148.66 243.666 147.883 243.666C147.157 243.666 146.51 243.865 145.94 244.262C145.387 244.642 144.981 245.152 144.722 245.791L141.95 244.443C142.226 243.701 142.658 243.062 143.245 242.526C143.85 241.973 144.558 241.542 145.37 241.231C146.182 240.92 147.062 240.764 148.012 240.764C149.17 240.764 150.189 240.98 151.07 241.412C151.951 241.827 152.633 242.414 153.117 243.174C153.618 243.917 153.868 244.789 153.868 245.791V255.17H150.655V252.761L151.381 252.709C151.018 253.313 150.586 253.823 150.085 254.237C149.584 254.635 149.014 254.946 148.375 255.17C147.736 255.378 147.028 255.481 146.251 255.481ZM157.005 255.17V241.075H160.4V255.17H157.005ZM157.005 239.495V235.867H160.4V239.495H157.005ZM163.533 255.17V241.075H166.72V243.848L166.461 243.355C166.789 242.509 167.325 241.87 168.068 241.438C168.828 240.989 169.709 240.764 170.71 240.764C171.747 240.764 172.662 240.989 173.457 241.438C174.269 241.887 174.899 242.517 175.348 243.329C175.797 244.124 176.022 245.048 176.022 246.102V255.17H172.628V246.905C172.628 246.283 172.507 245.748 172.265 245.299C172.023 244.849 171.686 244.504 171.255 244.262C170.84 244.003 170.348 243.873 169.778 243.873C169.225 243.873 168.733 244.003 168.301 244.262C167.869 244.504 167.532 244.849 167.29 245.299C167.049 245.748 166.928 246.283 166.928 246.905V255.17H163.533ZM185.577 255.481C184.126 255.481 182.856 255.153 181.768 254.497C180.68 253.84 179.834 252.951 179.229 251.828C178.624 250.705 178.322 249.461 178.322 248.097C178.322 246.68 178.624 245.428 179.229 244.34C179.851 243.234 180.689 242.362 181.742 241.723C182.813 241.084 184.005 240.764 185.318 240.764C186.423 240.764 187.391 240.946 188.22 241.308C189.066 241.671 189.783 242.172 190.37 242.811C190.958 243.45 191.407 244.184 191.718 245.013C192.029 245.825 192.184 246.706 192.184 247.656C192.184 247.898 192.167 248.149 192.132 248.408C192.115 248.667 192.072 248.891 192.003 249.081H181.12V246.49H190.085L188.479 247.708C188.634 246.914 188.591 246.205 188.349 245.584C188.125 244.962 187.745 244.469 187.209 244.107C186.691 243.744 186.061 243.563 185.318 243.563C184.61 243.563 183.979 243.744 183.426 244.107C182.874 244.452 182.45 244.97 182.157 245.661C181.88 246.335 181.777 247.155 181.846 248.123C181.777 248.986 181.889 249.755 182.183 250.429C182.494 251.085 182.943 251.595 183.53 251.957C184.135 252.32 184.826 252.501 185.603 252.501C186.38 252.501 187.037 252.337 187.572 252.009C188.125 251.681 188.557 251.241 188.868 250.688L191.614 252.035C191.338 252.709 190.906 253.305 190.319 253.823C189.731 254.341 189.032 254.747 188.22 255.041C187.425 255.334 186.544 255.481 185.577 255.481ZM201.312 255.481C199.948 255.481 198.73 255.162 197.659 254.522C196.588 253.866 195.742 252.977 195.12 251.854C194.498 250.731 194.187 249.487 194.187 248.123C194.187 246.741 194.498 245.497 195.12 244.392C195.742 243.286 196.588 242.405 197.659 241.749C198.747 241.092 199.956 240.764 201.286 240.764C202.357 240.764 203.307 240.98 204.136 241.412C204.983 241.827 205.648 242.414 206.132 243.174L205.613 243.873V235.556H209.008V255.17H205.795V252.45L206.157 253.123C205.674 253.883 205 254.471 204.136 254.885C203.273 255.283 202.331 255.481 201.312 255.481ZM201.675 252.372C202.452 252.372 203.135 252.191 203.722 251.828C204.309 251.465 204.767 250.964 205.095 250.325C205.441 249.686 205.613 248.952 205.613 248.123C205.613 247.311 205.441 246.585 205.095 245.946C204.767 245.29 204.309 244.78 203.722 244.418C203.135 244.055 202.452 243.873 201.675 243.873C200.915 243.873 200.233 244.063 199.628 244.443C199.024 244.806 198.549 245.307 198.203 245.946C197.875 246.568 197.711 247.294 197.711 248.123C197.711 248.952 197.875 249.686 198.203 250.325C198.549 250.964 199.024 251.465 199.628 251.828C200.233 252.191 200.915 252.372 201.675 252.372ZM223.948 255.481C222.721 255.481 221.581 255.257 220.527 254.807C219.491 254.358 218.593 253.737 217.833 252.942C217.09 252.13 216.546 251.189 216.2 250.118L219.128 248.848C219.595 249.954 220.268 250.826 221.149 251.465C222.03 252.087 223.023 252.398 224.129 252.398C224.751 252.398 225.286 252.303 225.735 252.113C226.202 251.906 226.556 251.629 226.798 251.284C227.057 250.938 227.186 250.524 227.186 250.04C227.186 249.47 227.014 249.004 226.668 248.641C226.34 248.261 225.839 247.967 225.165 247.76L221.46 246.568C219.957 246.102 218.826 245.402 218.066 244.469C217.306 243.537 216.926 242.44 216.926 241.179C216.926 240.073 217.194 239.097 217.729 238.251C218.282 237.405 219.042 236.748 220.009 236.282C220.994 235.798 222.117 235.556 223.377 235.556C224.535 235.556 225.597 235.764 226.564 236.178C227.532 236.575 228.361 237.137 229.052 237.862C229.76 238.571 230.287 239.408 230.632 240.376L227.73 241.671C227.35 240.704 226.78 239.961 226.02 239.443C225.26 238.907 224.379 238.64 223.377 238.64C222.79 238.64 222.272 238.743 221.823 238.951C221.374 239.141 221.02 239.417 220.761 239.78C220.519 240.125 220.398 240.54 220.398 241.023C220.398 241.559 220.571 242.034 220.916 242.448C221.262 242.846 221.788 243.157 222.497 243.381L226.046 244.495C227.584 244.996 228.732 245.687 229.492 246.568C230.27 247.449 230.658 248.537 230.658 249.833C230.658 250.938 230.373 251.914 229.803 252.761C229.233 253.607 228.447 254.272 227.445 254.756C226.444 255.239 225.278 255.481 223.948 255.481ZM239.972 255.326C238.383 255.326 237.148 254.894 236.267 254.03C235.403 253.149 234.971 251.914 234.971 250.325V244.107H232.536V241.075H232.795C233.486 241.075 234.021 240.894 234.401 240.531C234.781 240.168 234.971 239.641 234.971 238.951V237.862H238.365V241.075H241.604V244.107H238.365V250.144C238.365 250.61 238.443 251.007 238.599 251.336C238.771 251.664 239.03 251.914 239.376 252.087C239.739 252.26 240.196 252.346 240.749 252.346C240.87 252.346 241.008 252.337 241.164 252.32C241.336 252.303 241.501 252.286 241.656 252.268V255.17C241.414 255.205 241.138 255.239 240.827 255.274C240.516 255.308 240.231 255.326 239.972 255.326ZM248.474 255.481C247.489 255.481 246.634 255.317 245.909 254.989C245.183 254.661 244.622 254.194 244.225 253.59C243.827 252.968 243.629 252.251 243.629 251.439C243.629 250.662 243.801 249.971 244.147 249.366C244.492 248.745 245.028 248.226 245.753 247.812C246.479 247.397 247.394 247.104 248.5 246.931L253.112 246.179V248.77L249.147 249.444C248.474 249.565 247.973 249.781 247.645 250.092C247.316 250.403 247.152 250.809 247.152 251.31C247.152 251.793 247.334 252.182 247.696 252.476C248.076 252.752 248.543 252.89 249.096 252.89C249.804 252.89 250.426 252.743 250.961 252.45C251.514 252.139 251.937 251.716 252.231 251.18C252.542 250.645 252.697 250.057 252.697 249.418V245.791C252.697 245.186 252.455 244.685 251.972 244.288C251.505 243.873 250.883 243.666 250.106 243.666C249.381 243.666 248.733 243.865 248.163 244.262C247.61 244.642 247.204 245.152 246.945 245.791L244.173 244.443C244.449 243.701 244.881 243.062 245.468 242.526C246.073 241.973 246.781 241.542 247.593 241.231C248.405 240.92 249.286 240.764 250.236 240.764C251.393 240.764 252.412 240.98 253.293 241.412C254.174 241.827 254.856 242.414 255.34 243.174C255.841 243.917 256.091 244.789 256.091 245.791V255.17H252.878V252.761L253.604 252.709C253.241 253.313 252.809 253.823 252.308 254.237C251.808 254.635 251.238 254.946 250.598 255.17C249.959 255.378 249.251 255.481 248.474 255.481ZM260.658 255.17V244.107H258.171V241.075H260.658V240.609C260.658 239.538 260.874 238.631 261.306 237.888C261.755 237.128 262.377 236.55 263.172 236.152C263.966 235.755 264.908 235.556 265.996 235.556C266.203 235.556 266.428 235.574 266.67 235.608C266.929 235.625 267.145 235.651 267.317 235.686V238.614C267.145 238.579 266.98 238.562 266.825 238.562C266.687 238.545 266.557 238.536 266.436 238.536C265.676 238.536 265.089 238.709 264.674 239.054C264.26 239.382 264.053 239.901 264.053 240.609V241.075H270.219V244.107H264.053V255.17H260.658ZM270.919 255.17V244.107H268.431V241.075H270.919V240.609C270.919 239.538 271.135 238.631 271.567 237.888C271.998 237.128 272.612 236.55 273.406 236.152C274.218 235.755 275.168 235.556 276.256 235.556C276.464 235.556 276.688 235.574 276.93 235.608C277.189 235.625 277.396 235.651 277.552 235.686V238.614C277.396 238.579 277.241 238.562 277.085 238.562C276.947 238.545 276.818 238.536 276.697 238.536C275.937 238.536 275.349 238.709 274.935 239.054C274.52 239.382 274.313 239.901 274.313 240.609V241.075H277.422V244.107H274.313V255.17H270.919Z" fill="black"/>
<path d="M92.5241 286.035C92.3723 285.571 92.1722 285.154 91.9238 284.786C91.6799 284.414 91.3878 284.096 91.0474 283.834C90.7115 283.572 90.3297 283.372 89.9018 283.234C89.474 283.096 89.0047 283.027 88.4941 283.027C87.6568 283.027 86.8954 283.243 86.2099 283.675C85.5245 284.108 84.9793 284.745 84.5745 285.587C84.1696 286.429 83.9672 287.461 83.9672 288.685C83.9672 289.909 84.1719 290.942 84.5814 291.784C84.9908 292.625 85.5452 293.263 86.2444 293.695C86.9437 294.128 87.7304 294.344 88.6045 294.344C89.4142 294.344 90.1273 294.171 90.7437 293.826C91.3648 293.477 91.8479 292.984 92.1929 292.349C92.5425 291.71 92.7174 290.958 92.7174 290.093L93.2418 290.203H88.9909V288.685H94.3735V290.203C94.3735 291.367 94.1251 292.379 93.6283 293.24C93.136 294.1 92.4551 294.767 91.5856 295.241C90.7207 295.71 89.727 295.945 88.6045 295.945C87.3532 295.945 86.2536 295.65 85.3059 295.061C84.3628 294.473 83.6268 293.635 83.0977 292.55C82.5732 291.464 82.311 290.176 82.311 288.685C82.311 287.567 82.4605 286.562 82.7596 285.67C83.0632 284.772 83.491 284.009 84.0431 283.378C84.5952 282.748 85.2484 282.265 86.0029 281.929C86.7574 281.593 87.5878 281.426 88.4941 281.426C89.2394 281.426 89.934 281.538 90.5781 281.764C91.2268 281.985 91.8042 282.3 92.3102 282.709C92.8209 283.114 93.2464 283.599 93.5868 284.165C93.9273 284.726 94.1619 285.35 94.2907 286.035H92.5241ZM101.528 295.972C100.507 295.972 99.6256 295.747 98.8849 295.296C98.1488 294.841 97.5807 294.206 97.1804 293.391C96.7848 292.573 96.587 291.62 96.587 290.535C96.587 289.449 96.7848 288.492 97.1804 287.664C97.5807 286.831 98.1373 286.182 98.8504 285.718C99.5681 285.249 100.405 285.014 101.362 285.014C101.914 285.014 102.459 285.106 102.998 285.29C103.536 285.474 104.026 285.773 104.468 286.187C104.909 286.597 105.261 287.139 105.523 287.816C105.786 288.492 105.917 289.325 105.917 290.314V291.004H97.7463V289.596H104.261C104.261 288.998 104.141 288.464 103.902 287.995C103.667 287.526 103.331 287.155 102.894 286.884C102.462 286.613 101.951 286.477 101.362 286.477C100.714 286.477 100.152 286.638 99.6785 286.96C99.2092 287.277 98.8481 287.691 98.5951 288.202C98.342 288.713 98.2155 289.26 98.2155 289.844V290.783C98.2155 291.583 98.3535 292.262 98.6296 292.819C98.9102 293.371 99.2989 293.792 99.7958 294.082C100.293 294.367 100.87 294.509 101.528 294.509C101.956 294.509 102.342 294.45 102.687 294.33C103.037 294.206 103.338 294.022 103.591 293.778C103.844 293.529 104.04 293.221 104.178 292.853L105.751 293.295C105.586 293.829 105.307 294.298 104.916 294.703C104.525 295.103 104.042 295.416 103.467 295.641C102.892 295.862 102.246 295.972 101.528 295.972ZM113.004 285.152V286.532H107.511V285.152H113.004ZM109.112 282.612H110.74V292.715C110.74 293.175 110.807 293.52 110.941 293.75C111.079 293.976 111.253 294.128 111.465 294.206C111.681 294.279 111.909 294.316 112.148 294.316C112.328 294.316 112.475 294.307 112.59 294.289C112.705 294.266 112.797 294.247 112.866 294.233L113.197 295.696C113.087 295.738 112.933 295.779 112.735 295.821C112.537 295.867 112.286 295.89 111.983 295.89C111.522 295.89 111.072 295.791 110.63 295.593C110.193 295.395 109.829 295.094 109.54 294.689C109.254 294.284 109.112 293.773 109.112 293.157V282.612ZM125.225 295.972C124.231 295.972 123.376 295.738 122.658 295.268C121.94 294.799 121.388 294.153 121.002 293.329C120.615 292.506 120.422 291.565 120.422 290.507C120.422 289.43 120.62 288.48 121.016 287.657C121.416 286.829 121.973 286.182 122.686 285.718C123.403 285.249 124.241 285.014 125.197 285.014C125.943 285.014 126.614 285.152 127.213 285.428C127.811 285.704 128.301 286.09 128.682 286.587C129.064 287.084 129.301 287.664 129.393 288.326H127.765C127.64 287.843 127.364 287.415 126.936 287.043C126.513 286.666 125.943 286.477 125.225 286.477C124.59 286.477 124.034 286.643 123.555 286.974C123.081 287.3 122.711 287.763 122.444 288.361C122.182 288.954 122.051 289.651 122.051 290.452C122.051 291.271 122.18 291.984 122.437 292.591C122.699 293.198 123.067 293.67 123.541 294.006C124.02 294.341 124.581 294.509 125.225 294.509C125.648 294.509 126.032 294.436 126.378 294.289C126.723 294.141 127.015 293.93 127.254 293.654C127.493 293.378 127.663 293.046 127.765 292.66H129.393C129.301 293.286 129.073 293.849 128.71 294.351C128.351 294.848 127.875 295.243 127.282 295.538C126.693 295.827 126.007 295.972 125.225 295.972ZM136.08 295.972C135.123 295.972 134.283 295.745 133.561 295.289C132.844 294.834 132.282 294.197 131.877 293.378C131.477 292.559 131.277 291.602 131.277 290.507C131.277 289.403 131.477 288.439 131.877 287.616C132.282 286.792 132.844 286.153 133.561 285.697C134.283 285.242 135.123 285.014 136.08 285.014C137.037 285.014 137.874 285.242 138.592 285.697C139.314 286.153 139.875 286.792 140.276 287.616C140.68 288.439 140.883 289.403 140.883 290.507C140.883 291.602 140.68 292.559 140.276 293.378C139.875 294.197 139.314 294.834 138.592 295.289C137.874 295.745 137.037 295.972 136.08 295.972ZM136.08 294.509C136.807 294.509 137.405 294.323 137.874 293.95C138.343 293.578 138.691 293.088 138.916 292.481C139.142 291.873 139.254 291.215 139.254 290.507C139.254 289.798 139.142 289.138 138.916 288.526C138.691 287.915 138.343 287.42 137.874 287.043C137.405 286.666 136.807 286.477 136.08 286.477C135.353 286.477 134.755 286.666 134.286 287.043C133.817 287.42 133.469 287.915 133.244 288.526C133.018 289.138 132.906 289.798 132.906 290.507C132.906 291.215 133.018 291.873 133.244 292.481C133.469 293.088 133.817 293.578 134.286 293.95C134.755 294.323 135.353 294.509 136.08 294.509ZM144.997 289.375V295.752H143.369V285.152H144.942V286.808H145.08C145.329 286.27 145.706 285.837 146.212 285.511C146.718 285.18 147.371 285.014 148.172 285.014C148.889 285.014 149.517 285.161 150.056 285.456C150.594 285.745 151.013 286.187 151.312 286.781C151.611 287.369 151.76 288.115 151.76 289.016V295.752H150.132V289.127C150.132 288.294 149.915 287.645 149.483 287.181C149.051 286.712 148.457 286.477 147.703 286.477C147.183 286.477 146.718 286.59 146.309 286.815C145.904 287.04 145.584 287.369 145.349 287.802C145.115 288.234 144.997 288.759 144.997 289.375ZM162.244 287.526L160.781 287.94C160.689 287.696 160.553 287.459 160.374 287.229C160.199 286.994 159.96 286.801 159.656 286.649C159.353 286.498 158.964 286.422 158.49 286.422C157.842 286.422 157.301 286.571 156.868 286.87C156.441 287.165 156.227 287.54 156.227 287.995C156.227 288.4 156.374 288.72 156.668 288.954C156.963 289.189 157.423 289.384 158.049 289.541L159.622 289.927C160.57 290.157 161.276 290.509 161.74 290.983C162.205 291.452 162.437 292.057 162.437 292.798C162.437 293.405 162.263 293.948 161.913 294.427C161.568 294.905 161.085 295.282 160.464 295.558C159.843 295.834 159.12 295.972 158.297 295.972C157.216 295.972 156.321 295.738 155.613 295.268C154.904 294.799 154.456 294.114 154.267 293.212L155.813 292.826C155.96 293.396 156.238 293.824 156.648 294.109C157.062 294.394 157.602 294.537 158.269 294.537C159.028 294.537 159.631 294.376 160.077 294.054C160.528 293.727 160.754 293.336 160.754 292.881C160.754 292.513 160.625 292.205 160.367 291.956C160.11 291.703 159.714 291.514 159.18 291.39L157.414 290.976C156.443 290.746 155.73 290.39 155.274 289.907C154.824 289.419 154.598 288.809 154.598 288.078C154.598 287.48 154.766 286.951 155.102 286.491C155.442 286.031 155.905 285.67 156.489 285.407C157.078 285.145 157.745 285.014 158.49 285.014C159.539 285.014 160.363 285.244 160.961 285.704C161.563 286.164 161.991 286.771 162.244 287.526ZM171.569 291.418V285.152H173.197V295.752H171.569V293.957H171.458C171.21 294.496 170.824 294.953 170.299 295.331C169.775 295.703 169.112 295.89 168.312 295.89C167.649 295.89 167.06 295.745 166.545 295.455C166.03 295.16 165.625 294.719 165.331 294.13C165.036 293.536 164.889 292.789 164.889 291.887V285.152H166.517V291.777C166.517 292.55 166.734 293.166 167.166 293.626C167.603 294.086 168.16 294.316 168.836 294.316C169.241 294.316 169.653 294.213 170.071 294.006C170.495 293.799 170.849 293.481 171.134 293.053C171.424 292.625 171.569 292.08 171.569 291.418ZM177.809 281.619V295.752H176.18V281.619H177.809ZM185.401 285.152V286.532H179.908V285.152H185.401ZM181.509 282.612H183.138V292.715C183.138 293.175 183.205 293.52 183.338 293.75C183.476 293.976 183.651 294.128 183.863 294.206C184.079 294.279 184.306 294.316 184.546 294.316C184.725 294.316 184.872 294.307 184.987 294.289C185.102 294.266 185.194 294.247 185.263 294.233L185.595 295.696C185.484 295.738 185.33 295.779 185.132 295.821C184.934 295.867 184.684 295.89 184.38 295.89C183.92 295.89 183.469 295.791 183.028 295.593C182.59 295.395 182.227 295.094 181.937 294.689C181.652 294.284 181.509 293.773 181.509 293.157V282.612ZM190.97 296C190.299 296 189.689 295.873 189.142 295.62C188.594 295.363 188.159 294.992 187.837 294.509C187.515 294.022 187.354 293.433 187.354 292.743C187.354 292.136 187.474 291.643 187.713 291.266C187.952 290.884 188.272 290.585 188.672 290.369C189.073 290.153 189.514 289.992 189.997 289.886C190.485 289.775 190.975 289.688 191.467 289.624C192.111 289.541 192.633 289.479 193.034 289.437C193.438 289.391 193.733 289.315 193.917 289.21C194.106 289.104 194.2 288.92 194.2 288.658V288.602C194.2 287.921 194.014 287.392 193.641 287.015C193.273 286.638 192.714 286.449 191.964 286.449C191.187 286.449 190.577 286.62 190.135 286.96C189.694 287.3 189.383 287.664 189.204 288.05L187.658 287.498C187.934 286.854 188.302 286.353 188.762 285.994C189.227 285.63 189.733 285.377 190.28 285.235C190.832 285.088 191.375 285.014 191.909 285.014C192.249 285.014 192.64 285.055 193.082 285.138C193.528 285.216 193.958 285.38 194.372 285.628C194.791 285.877 195.138 286.251 195.414 286.753C195.69 287.254 195.828 287.926 195.828 288.768V295.752H194.2V294.316H194.117C194.007 294.546 193.823 294.792 193.565 295.055C193.307 295.317 192.965 295.54 192.537 295.724C192.109 295.908 191.587 296 190.97 296ZM191.219 294.537C191.863 294.537 192.406 294.41 192.847 294.157C193.294 293.904 193.629 293.578 193.855 293.178C194.085 292.777 194.2 292.356 194.2 291.915V290.424C194.131 290.507 193.979 290.583 193.744 290.652C193.514 290.716 193.248 290.774 192.944 290.824C192.645 290.87 192.353 290.912 192.068 290.949C191.787 290.981 191.559 291.008 191.384 291.031C190.961 291.087 190.565 291.176 190.197 291.301C189.834 291.42 189.54 291.602 189.314 291.846C189.093 292.085 188.983 292.412 188.983 292.826C188.983 293.391 189.192 293.819 189.611 294.109C190.034 294.394 190.57 294.537 191.219 294.537ZM203.411 285.152V286.532H197.918V285.152H203.411ZM199.519 282.612H201.147V292.715C201.147 293.175 201.214 293.52 201.347 293.75C201.485 293.976 201.66 294.128 201.872 294.206C202.088 294.279 202.316 294.316 202.555 294.316C202.734 294.316 202.882 294.307 202.997 294.289C203.112 294.266 203.204 294.247 203.273 294.233L203.604 295.696C203.493 295.738 203.339 295.779 203.142 295.821C202.944 295.867 202.693 295.89 202.389 295.89C201.929 295.89 201.478 295.791 201.037 295.593C200.6 295.395 200.236 295.094 199.946 294.689C199.661 294.284 199.519 293.773 199.519 293.157V282.612ZM205.86 295.752V285.152H207.489V295.752H205.86ZM206.688 283.385C206.371 283.385 206.097 283.277 205.867 283.061C205.642 282.845 205.529 282.585 205.529 282.281C205.529 281.978 205.642 281.718 205.867 281.501C206.097 281.285 206.371 281.177 206.688 281.177C207.006 281.177 207.277 281.285 207.503 281.501C207.733 281.718 207.848 281.978 207.848 282.281C207.848 282.585 207.733 282.845 207.503 283.061C207.277 283.277 207.006 283.385 206.688 283.385ZM214.778 295.972C213.821 295.972 212.981 295.745 212.259 295.289C211.541 294.834 210.98 294.197 210.575 293.378C210.175 292.559 209.975 291.602 209.975 290.507C209.975 289.403 210.175 288.439 210.575 287.616C210.98 286.792 211.541 286.153 212.259 285.697C212.981 285.242 213.821 285.014 214.778 285.014C215.735 285.014 216.572 285.242 217.29 285.697C218.012 286.153 218.573 286.792 218.974 287.616C219.378 288.439 219.581 289.403 219.581 290.507C219.581 291.602 219.378 292.559 218.974 293.378C218.573 294.197 218.012 294.834 217.29 295.289C216.572 295.745 215.735 295.972 214.778 295.972ZM214.778 294.509C215.505 294.509 216.103 294.323 216.572 293.95C217.041 293.578 217.389 293.088 217.614 292.481C217.84 291.873 217.952 291.215 217.952 290.507C217.952 289.798 217.84 289.138 217.614 288.526C217.389 287.915 217.041 287.42 216.572 287.043C216.103 286.666 215.505 286.477 214.778 286.477C214.051 286.477 213.453 286.666 212.984 287.043C212.514 287.42 212.167 287.915 211.942 288.526C211.716 289.138 211.604 289.798 211.604 290.507C211.604 291.215 211.716 291.873 211.942 292.481C212.167 293.088 212.514 293.578 212.984 293.95C213.453 294.323 214.051 294.509 214.778 294.509ZM223.695 289.375V295.752H222.067V285.152H223.64V286.808H223.778C224.027 286.27 224.404 285.837 224.91 285.511C225.416 285.18 226.069 285.014 226.87 285.014C227.587 285.014 228.215 285.161 228.754 285.456C229.292 285.745 229.711 286.187 230.01 286.781C230.309 287.369 230.458 288.115 230.458 289.016V295.752H228.83V289.127C228.83 288.294 228.613 287.645 228.181 287.181C227.748 286.712 227.155 286.477 226.401 286.477C225.881 286.477 225.416 286.59 225.007 286.815C224.602 287.04 224.282 287.369 224.047 287.802C223.813 288.234 223.695 288.759 223.695 289.375ZM243.62 285.152V286.532H237.906V285.152H243.62ZM239.617 295.752V283.689C239.617 283.082 239.76 282.576 240.045 282.171C240.33 281.766 240.701 281.462 241.156 281.26C241.611 281.058 242.092 280.956 242.598 280.956C242.999 280.956 243.325 280.989 243.578 281.053C243.831 281.117 244.02 281.177 244.144 281.232L243.675 282.64C243.592 282.612 243.477 282.578 243.33 282.537C243.187 282.495 242.999 282.474 242.764 282.474C242.226 282.474 241.837 282.61 241.598 282.882C241.363 283.153 241.246 283.551 241.246 284.075V295.752H239.617ZM249.772 295.972C248.815 295.972 247.975 295.745 247.253 295.289C246.535 294.834 245.974 294.197 245.569 293.378C245.169 292.559 244.969 291.602 244.969 290.507C244.969 289.403 245.169 288.439 245.569 287.616C245.974 286.792 246.535 286.153 247.253 285.697C247.975 285.242 248.815 285.014 249.772 285.014C250.729 285.014 251.566 285.242 252.284 285.697C253.006 286.153 253.567 286.792 253.967 287.616C254.372 288.439 254.575 289.403 254.575 290.507C254.575 291.602 254.372 292.559 253.967 293.378C253.567 294.197 253.006 294.834 252.284 295.289C251.566 295.745 250.729 295.972 249.772 295.972ZM249.772 294.509C250.499 294.509 251.097 294.323 251.566 293.95C252.035 293.578 252.382 293.088 252.608 292.481C252.833 291.873 252.946 291.215 252.946 290.507C252.946 289.798 252.833 289.138 252.608 288.526C252.382 287.915 252.035 287.42 251.566 287.043C251.097 286.666 250.499 286.477 249.772 286.477C249.045 286.477 248.447 286.666 247.977 287.043C247.508 287.42 247.161 287.915 246.935 288.526C246.71 289.138 246.597 289.798 246.597 290.507C246.597 291.215 246.71 291.873 246.935 292.481C247.161 293.088 247.508 293.578 247.977 293.95C248.447 294.323 249.045 294.509 249.772 294.509ZM257.061 295.752V285.152H258.634V286.753H258.744C258.938 286.228 259.287 285.803 259.793 285.476C260.299 285.15 260.87 284.986 261.505 284.986C261.624 284.986 261.774 284.989 261.953 284.993C262.133 284.998 262.268 285.005 262.36 285.014V286.67C262.305 286.656 262.179 286.636 261.981 286.608C261.788 286.576 261.583 286.56 261.367 286.56C260.851 286.56 260.391 286.668 259.986 286.884C259.586 287.096 259.269 287.39 259.034 287.767C258.804 288.14 258.689 288.566 258.689 289.044V295.752H257.061ZM264.291 295.752V285.152H265.864V286.808H266.002C266.223 286.242 266.58 285.803 267.072 285.49C267.564 285.173 268.155 285.014 268.845 285.014C269.545 285.014 270.127 285.173 270.591 285.49C271.06 285.803 271.426 286.242 271.688 286.808H271.799C272.07 286.261 272.477 285.826 273.02 285.504C273.563 285.177 274.214 285.014 274.973 285.014C275.921 285.014 276.696 285.311 277.299 285.904C277.901 286.493 278.203 287.411 278.203 288.658V295.752H276.574V288.658C276.574 287.875 276.36 287.317 275.932 286.981C275.505 286.645 275.001 286.477 274.421 286.477C273.676 286.477 273.098 286.702 272.689 287.153C272.28 287.599 272.075 288.165 272.075 288.851V295.752H270.419V288.492C270.419 287.889 270.223 287.404 269.832 287.036C269.441 286.663 268.937 286.477 268.321 286.477C267.898 286.477 267.502 286.59 267.134 286.815C266.77 287.04 266.476 287.353 266.251 287.754C266.03 288.149 265.919 288.607 265.919 289.127V295.752H264.291ZM290.952 295.972C289.995 295.972 289.155 295.745 288.433 295.289C287.715 294.834 287.154 294.197 286.749 293.378C286.349 292.559 286.149 291.602 286.149 290.507C286.149 289.403 286.349 288.439 286.749 287.616C287.154 286.792 287.715 286.153 288.433 285.697C289.155 285.242 289.995 285.014 290.952 285.014C291.909 285.014 292.746 285.242 293.464 285.697C294.186 286.153 294.747 286.792 295.148 287.616C295.552 288.439 295.755 289.403 295.755 290.507C295.755 291.602 295.552 292.559 295.148 293.378C294.747 294.197 294.186 294.834 293.464 295.289C292.746 295.745 291.909 295.972 290.952 295.972ZM290.952 294.509C291.679 294.509 292.277 294.323 292.746 293.95C293.215 293.578 293.563 293.088 293.788 292.481C294.014 291.873 294.126 291.215 294.126 290.507C294.126 289.798 294.014 289.138 293.788 288.526C293.563 287.915 293.215 287.42 292.746 287.043C292.277 286.666 291.679 286.477 290.952 286.477C290.225 286.477 289.627 286.666 289.158 287.043C288.688 287.42 288.341 287.915 288.116 288.526C287.89 289.138 287.778 289.798 287.778 290.507C287.778 291.215 287.89 291.873 288.116 292.481C288.341 293.088 288.688 293.578 289.158 293.95C289.627 294.323 290.225 294.509 290.952 294.509ZM304.921 291.418V285.152H306.549V295.752H304.921V293.957H304.81C304.562 294.496 304.175 294.953 303.651 295.331C303.127 295.703 302.464 295.89 301.664 295.89C301.001 295.89 300.412 295.745 299.897 295.455C299.382 295.16 298.977 294.719 298.682 294.13C298.388 293.536 298.241 292.789 298.241 291.887V285.152H299.869V291.777C299.869 292.55 300.086 293.166 300.518 293.626C300.955 294.086 301.512 294.316 302.188 294.316C302.593 294.316 303.005 294.213 303.423 294.006C303.847 293.799 304.201 293.481 304.486 293.053C304.776 292.625 304.921 292.08 304.921 291.418ZM309.532 295.752V285.152H311.106V286.753H311.216C311.409 286.228 311.759 285.803 312.265 285.476C312.771 285.15 313.341 284.986 313.976 284.986C314.096 284.986 314.245 284.989 314.425 284.993C314.604 284.998 314.74 285.005 314.832 285.014V286.67C314.777 286.656 314.65 286.636 314.452 286.608C314.259 286.576 314.054 286.56 313.838 286.56C313.323 286.56 312.863 286.668 312.458 286.884C312.058 287.096 311.74 287.39 311.506 287.767C311.276 288.14 311.161 288.566 311.161 289.044V295.752H309.532ZM115.101 307.137V305.619H125.7V307.137H121.256V319.752H119.545V307.137H115.101ZM127.02 319.752V309.152H128.594V310.753H128.704C128.897 310.228 129.247 309.803 129.753 309.476C130.259 309.15 130.829 308.986 131.464 308.986C131.584 308.986 131.733 308.989 131.913 308.993C132.092 308.998 132.228 309.005 132.32 309.014V310.67C132.265 310.656 132.138 310.636 131.94 310.608C131.747 310.576 131.542 310.56 131.326 310.56C130.811 310.56 130.351 310.668 129.946 310.884C129.546 311.096 129.228 311.39 128.994 311.767C128.764 312.14 128.649 312.566 128.649 313.044V319.752H127.02ZM137.37 320C136.698 320 136.088 319.873 135.541 319.62C134.993 319.363 134.559 318.992 134.237 318.509C133.915 318.022 133.754 317.433 133.754 316.743C133.754 316.136 133.873 315.643 134.112 315.266C134.352 314.884 134.671 314.585 135.072 314.369C135.472 314.153 135.913 313.992 136.397 313.886C136.884 313.775 137.374 313.688 137.866 313.624C138.51 313.541 139.033 313.479 139.433 313.437C139.838 313.391 140.132 313.315 140.316 313.21C140.505 313.104 140.599 312.92 140.599 312.658V312.602C140.599 311.921 140.413 311.392 140.04 311.015C139.672 310.638 139.113 310.449 138.363 310.449C137.586 310.449 136.976 310.62 136.535 310.96C136.093 311.3 135.782 311.664 135.603 312.05L134.057 311.498C134.333 310.854 134.701 310.353 135.161 309.994C135.626 309.63 136.132 309.377 136.679 309.235C137.232 309.088 137.774 309.014 138.308 309.014C138.648 309.014 139.04 309.055 139.481 309.138C139.927 309.216 140.358 309.38 140.772 309.628C141.19 309.877 141.538 310.251 141.814 310.753C142.09 311.254 142.228 311.926 142.228 312.768V319.752H140.599V318.316H140.516C140.406 318.546 140.222 318.792 139.964 319.055C139.707 319.317 139.364 319.54 138.936 319.724C138.508 319.908 137.986 320 137.37 320ZM137.618 318.537C138.262 318.537 138.805 318.41 139.247 318.157C139.693 317.904 140.029 317.578 140.254 317.178C140.484 316.777 140.599 316.356 140.599 315.915V314.424C140.53 314.507 140.378 314.583 140.144 314.652C139.914 314.716 139.647 314.774 139.343 314.824C139.044 314.87 138.752 314.912 138.467 314.949C138.186 314.981 137.958 315.008 137.784 315.031C137.36 315.087 136.965 315.176 136.597 315.301C136.233 315.42 135.939 315.602 135.713 315.846C135.493 316.085 135.382 316.412 135.382 316.826C135.382 317.391 135.591 317.819 136.01 318.109C136.433 318.394 136.969 318.537 137.618 318.537ZM145.2 319.752V309.152H146.829V319.752H145.2ZM146.028 307.385C145.711 307.385 145.437 307.277 145.207 307.061C144.982 306.845 144.869 306.585 144.869 306.281C144.869 305.978 144.982 305.718 145.207 305.501C145.437 305.285 145.711 305.177 146.028 305.177C146.346 305.177 146.617 305.285 146.843 305.501C147.073 305.718 147.188 305.978 147.188 306.281C147.188 306.585 147.073 306.845 146.843 307.061C146.617 307.277 146.346 307.385 146.028 307.385ZM151.44 313.375V319.752H149.812V309.152H151.385V310.808H151.523C151.771 310.27 152.149 309.837 152.655 309.511C153.161 309.18 153.814 309.014 154.615 309.014C155.332 309.014 155.96 309.161 156.498 309.456C157.037 309.745 157.455 310.187 157.754 310.781C158.053 311.369 158.203 312.115 158.203 313.016V319.752H156.574V313.127C156.574 312.294 156.358 311.645 155.926 311.181C155.493 310.712 154.9 310.477 154.145 310.477C153.625 310.477 153.161 310.59 152.751 310.815C152.346 311.04 152.027 311.369 151.792 311.802C151.557 312.234 151.44 312.759 151.44 313.375ZM165.623 319.972C164.602 319.972 163.721 319.747 162.98 319.296C162.244 318.841 161.676 318.206 161.275 317.391C160.88 316.573 160.682 315.62 160.682 314.535C160.682 313.449 160.88 312.492 161.275 311.664C161.676 310.831 162.232 310.182 162.945 309.718C163.663 309.249 164.5 309.014 165.457 309.014C166.009 309.014 166.555 309.106 167.093 309.29C167.631 309.474 168.121 309.773 168.563 310.187C169.004 310.597 169.356 311.139 169.618 311.816C169.881 312.492 170.012 313.325 170.012 314.314V315.004H161.841V313.596H168.356C168.356 312.998 168.236 312.464 167.997 311.995C167.762 311.526 167.426 311.155 166.989 310.884C166.557 310.613 166.046 310.477 165.457 310.477C164.809 310.477 164.247 310.638 163.774 310.96C163.304 311.277 162.943 311.691 162.69 312.202C162.437 312.713 162.311 313.26 162.311 313.844V314.783C162.311 315.583 162.449 316.262 162.725 316.819C163.005 317.371 163.394 317.792 163.891 318.082C164.388 318.367 164.965 318.509 165.623 318.509C166.051 318.509 166.437 318.45 166.782 318.33C167.132 318.206 167.433 318.022 167.686 317.778C167.939 317.529 168.135 317.221 168.273 316.853L169.846 317.295C169.681 317.829 169.402 318.298 169.011 318.703C168.62 319.103 168.137 319.416 167.562 319.641C166.987 319.862 166.341 319.972 165.623 319.972ZM176.492 319.972C175.608 319.972 174.829 319.749 174.152 319.303C173.476 318.852 172.947 318.217 172.565 317.398C172.183 316.575 171.992 315.602 171.992 314.479C171.992 313.366 172.183 312.4 172.565 311.581C172.947 310.762 173.478 310.13 174.159 309.683C174.84 309.237 175.627 309.014 176.519 309.014C177.209 309.014 177.754 309.129 178.155 309.359C178.56 309.584 178.868 309.842 179.079 310.132C179.296 310.417 179.464 310.652 179.583 310.836H179.721V305.619H181.35V319.752H179.776V318.123H179.583C179.464 318.316 179.293 318.56 179.073 318.854C178.852 319.144 178.537 319.404 178.127 319.634C177.718 319.86 177.173 319.972 176.492 319.972ZM176.712 318.509C177.366 318.509 177.918 318.339 178.369 317.999C178.82 317.654 179.162 317.178 179.397 316.57C179.631 315.958 179.749 315.252 179.749 314.452C179.749 313.66 179.634 312.968 179.404 312.375C179.174 311.777 178.833 311.312 178.382 310.981C177.932 310.645 177.375 310.477 176.712 310.477C176.022 310.477 175.447 310.654 174.987 311.008C174.532 311.358 174.189 311.834 173.959 312.437C173.734 313.035 173.621 313.706 173.621 314.452C173.621 315.206 173.736 315.892 173.966 316.508C174.201 317.12 174.546 317.608 175.001 317.971C175.461 318.33 176.032 318.509 176.712 318.509ZM197.532 311.526L196.069 311.94C195.977 311.696 195.841 311.459 195.662 311.229C195.487 310.994 195.248 310.801 194.944 310.649C194.641 310.498 194.252 310.422 193.778 310.422C193.129 310.422 192.589 310.571 192.156 310.87C191.729 311.165 191.515 311.54 191.515 311.995C191.515 312.4 191.662 312.72 191.956 312.954C192.251 313.189 192.711 313.384 193.336 313.541L194.91 313.927C195.857 314.157 196.564 314.509 197.028 314.983C197.493 315.452 197.725 316.057 197.725 316.798C197.725 317.405 197.55 317.948 197.201 318.427C196.856 318.905 196.373 319.282 195.752 319.558C195.131 319.834 194.408 319.972 193.585 319.972C192.504 319.972 191.609 319.738 190.9 319.268C190.192 318.799 189.743 318.114 189.555 317.212L191.101 316.826C191.248 317.396 191.526 317.824 191.936 318.109C192.35 318.394 192.89 318.537 193.557 318.537C194.316 318.537 194.919 318.376 195.365 318.054C195.816 317.727 196.041 317.336 196.041 316.881C196.041 316.513 195.913 316.205 195.655 315.956C195.397 315.703 195.002 315.514 194.468 315.39L192.702 314.976C191.731 314.746 191.018 314.39 190.562 313.907C190.111 313.419 189.886 312.809 189.886 312.078C189.886 311.48 190.054 310.951 190.39 310.491C190.73 310.031 191.193 309.67 191.777 309.407C192.366 309.145 193.033 309.014 193.778 309.014C194.827 309.014 195.65 309.244 196.249 309.704C196.851 310.164 197.279 310.771 197.532 311.526ZM204.786 309.152V310.532H199.293V309.152H204.786ZM200.894 306.612H202.523V316.715C202.523 317.175 202.59 317.52 202.723 317.75C202.861 317.976 203.036 318.128 203.248 318.206C203.464 318.279 203.692 318.316 203.931 318.316C204.11 318.316 204.257 318.307 204.372 318.289C204.487 318.266 204.579 318.247 204.648 318.233L204.98 319.696C204.869 319.738 204.715 319.779 204.517 319.821C204.32 319.867 204.069 319.89 203.765 319.89C203.305 319.89 202.854 319.791 202.413 319.593C201.976 319.395 201.612 319.094 201.322 318.689C201.037 318.284 200.894 317.773 200.894 317.157V306.612ZM210.355 320C209.684 320 209.074 319.873 208.527 319.62C207.979 319.363 207.544 318.992 207.222 318.509C206.9 318.022 206.739 317.433 206.739 316.743C206.739 316.136 206.859 315.643 207.098 315.266C207.337 314.884 207.657 314.585 208.057 314.369C208.458 314.153 208.899 313.992 209.382 313.886C209.87 313.775 210.36 313.688 210.852 313.624C211.496 313.541 212.018 313.479 212.419 313.437C212.824 313.391 213.118 313.315 213.302 313.21C213.491 313.104 213.585 312.92 213.585 312.658V312.602C213.585 311.921 213.399 311.392 213.026 311.015C212.658 310.638 212.099 310.449 211.349 310.449C210.572 310.449 209.962 310.62 209.52 310.96C209.079 311.3 208.768 311.664 208.589 312.05L207.043 311.498C207.319 310.854 207.687 310.353 208.147 309.994C208.612 309.63 209.118 309.377 209.665 309.235C210.217 309.088 210.76 309.014 211.294 309.014C211.634 309.014 212.025 309.055 212.467 309.138C212.913 309.216 213.343 309.38 213.757 309.628C214.176 309.877 214.523 310.251 214.799 310.753C215.075 311.254 215.214 311.926 215.214 312.768V319.752H213.585V318.316H213.502C213.392 318.546 213.208 318.792 212.95 319.055C212.692 319.317 212.35 319.54 211.922 319.724C211.494 319.908 210.972 320 210.355 320ZM210.604 318.537C211.248 318.537 211.791 318.41 212.232 318.157C212.679 317.904 213.014 317.578 213.24 317.178C213.47 316.777 213.585 316.356 213.585 315.915V314.424C213.516 314.507 213.364 314.583 213.129 314.652C212.899 314.716 212.633 314.774 212.329 314.824C212.03 314.87 211.738 314.912 211.453 314.949C211.172 314.981 210.944 315.008 210.769 315.031C210.346 315.087 209.951 315.176 209.582 315.301C209.219 315.42 208.925 315.602 208.699 315.846C208.478 316.085 208.368 316.412 208.368 316.826C208.368 317.391 208.577 317.819 208.996 318.109C209.419 318.394 209.955 318.537 210.604 318.537ZM222.906 309.152V310.532H217.192V309.152H222.906ZM218.904 319.752V307.689C218.904 307.082 219.046 306.576 219.332 306.171C219.617 305.766 219.987 305.462 220.443 305.26C220.898 305.058 221.379 304.956 221.885 304.956C222.285 304.956 222.612 304.989 222.865 305.053C223.118 305.117 223.306 305.177 223.431 305.232L222.961 306.64C222.879 306.612 222.764 306.578 222.616 306.537C222.474 306.495 222.285 306.474 222.05 306.474C221.512 306.474 221.123 306.61 220.884 306.882C220.65 307.153 220.532 307.551 220.532 308.075V319.752H218.904ZM229.909 309.152V310.532H224.195V309.152H229.909ZM225.906 319.752V307.689C225.906 307.082 226.049 306.576 226.334 306.171C226.619 305.766 226.99 305.462 227.445 305.26C227.901 305.058 228.381 304.956 228.887 304.956C229.288 304.956 229.614 304.989 229.867 305.053C230.12 305.117 230.309 305.177 230.433 305.232L229.964 306.64C229.881 306.612 229.766 306.578 229.619 306.537C229.476 306.495 229.288 306.474 229.053 306.474C228.515 306.474 228.126 306.61 227.887 306.882C227.652 307.153 227.535 307.551 227.535 308.075V319.752H225.906ZM242.266 309.152V310.532H236.773V309.152H242.266ZM238.374 306.612H240.003V316.715C240.003 317.175 240.069 317.52 240.203 317.75C240.341 317.976 240.516 318.128 240.727 318.206C240.944 318.279 241.171 318.316 241.41 318.316C241.59 318.316 241.737 318.307 241.852 318.289C241.967 318.266 242.059 318.247 242.128 318.233L242.459 319.696C242.349 319.738 242.195 319.779 241.997 319.821C241.799 319.867 241.549 319.89 241.245 319.89C240.785 319.89 240.334 319.791 239.892 319.593C239.455 319.395 239.092 319.094 238.802 318.689C238.517 318.284 238.374 317.773 238.374 317.157V306.612ZM249.046 319.972C248.025 319.972 247.144 319.747 246.403 319.296C245.667 318.841 245.099 318.206 244.699 317.391C244.303 316.573 244.105 315.62 244.105 314.535C244.105 313.449 244.303 312.492 244.699 311.664C245.099 310.831 245.656 310.182 246.369 309.718C247.086 309.249 247.924 309.014 248.881 309.014C249.433 309.014 249.978 309.106 250.516 309.29C251.054 309.474 251.544 309.773 251.986 310.187C252.428 310.597 252.779 311.139 253.042 311.816C253.304 312.492 253.435 313.325 253.435 314.314V315.004H245.265V313.596H251.779C251.779 312.998 251.659 312.464 251.42 311.995C251.185 311.526 250.85 311.155 250.413 310.884C249.98 310.613 249.469 310.477 248.881 310.477C248.232 310.477 247.671 310.638 247.197 310.96C246.728 311.277 246.366 311.691 246.113 312.202C245.86 312.713 245.734 313.26 245.734 313.844V314.783C245.734 315.583 245.872 316.262 246.148 316.819C246.429 317.371 246.817 317.792 247.314 318.082C247.811 318.367 248.388 318.509 249.046 318.509C249.474 318.509 249.86 318.45 250.206 318.33C250.555 318.206 250.856 318.022 251.11 317.778C251.363 317.529 251.558 317.221 251.696 316.853L253.269 317.295C253.104 317.829 252.826 318.298 252.434 318.703C252.043 319.103 251.56 319.416 250.985 319.641C250.41 319.862 249.764 319.972 249.046 319.972ZM259.032 320C258.36 320 257.75 319.873 257.203 319.62C256.655 319.363 256.221 318.992 255.899 318.509C255.577 318.022 255.416 317.433 255.416 316.743C255.416 316.136 255.535 315.643 255.774 315.266C256.014 314.884 256.333 314.585 256.734 314.369C257.134 314.153 257.576 313.992 258.059 313.886C258.546 313.775 259.036 313.688 259.528 313.624C260.173 313.541 260.695 313.479 261.095 313.437C261.5 313.391 261.794 313.315 261.978 313.21C262.167 313.104 262.261 312.92 262.261 312.658V312.602C262.261 311.921 262.075 311.392 261.702 311.015C261.334 310.638 260.775 310.449 260.025 310.449C259.248 310.449 258.638 310.62 258.197 310.96C257.755 311.3 257.444 311.664 257.265 312.05L255.719 311.498C255.995 310.854 256.363 310.353 256.823 309.994C257.288 309.63 257.794 309.377 258.342 309.235C258.894 309.088 259.436 309.014 259.97 309.014C260.311 309.014 260.702 309.055 261.143 309.138C261.589 309.216 262.02 309.38 262.434 309.628C262.852 309.877 263.2 310.251 263.476 310.753C263.752 311.254 263.89 311.926 263.89 312.768V319.752H262.261V318.316H262.178C262.068 318.546 261.884 318.792 261.626 319.055C261.369 319.317 261.026 319.54 260.598 319.724C260.17 319.908 259.648 320 259.032 320ZM259.28 318.537C259.924 318.537 260.467 318.41 260.909 318.157C261.355 317.904 261.691 317.578 261.916 317.178C262.146 316.777 262.261 316.356 262.261 315.915V314.424C262.192 314.507 262.04 314.583 261.806 314.652C261.576 314.716 261.309 314.774 261.005 314.824C260.706 314.87 260.414 314.912 260.129 314.949C259.848 314.981 259.62 315.008 259.446 315.031C259.022 315.087 258.627 315.176 258.259 315.301C257.895 315.42 257.601 315.602 257.375 315.846C257.155 316.085 257.044 316.412 257.044 316.826C257.044 317.391 257.253 317.819 257.672 318.109C258.095 318.394 258.631 318.537 259.28 318.537ZM266.862 319.752V309.152H268.436V310.808H268.574C268.794 310.242 269.151 309.803 269.643 309.49C270.135 309.173 270.727 309.014 271.417 309.014C272.116 309.014 272.698 309.173 273.163 309.49C273.632 309.803 273.998 310.242 274.26 310.808H274.37C274.642 310.261 275.049 309.826 275.592 309.504C276.135 309.177 276.785 309.014 277.545 309.014C278.492 309.014 279.267 309.311 279.87 309.904C280.473 310.493 280.774 311.411 280.774 312.658V319.752H279.146V312.658C279.146 311.875 278.932 311.317 278.504 310.981C278.076 310.645 277.572 310.477 276.993 310.477C276.247 310.477 275.67 310.702 275.26 311.153C274.851 311.599 274.646 312.165 274.646 312.851V319.752H272.99V312.492C272.99 311.889 272.795 311.404 272.404 311.036C272.012 310.663 271.509 310.477 270.892 310.477C270.469 310.477 270.073 310.59 269.705 310.815C269.342 311.04 269.047 311.353 268.822 311.754C268.601 312.149 268.491 312.607 268.491 313.127V319.752H266.862Z" fill="#757575"/>
</g>
<defs>
<filter id="filter0_d_1_304" x="-7.62939e-06" y="-7.62939e-06" width="396.424" height="426.61" filterUnits="userSpaceOnUse" color-interpolation-filters="sRGB">
<feFlood flood-opacity="0" result="BackgroundImageFix"/>
<feColorMatrix in="SourceAlpha" type="matrix" values="0 0 0 0 0 0 0 0 0 0 0 0 0 0 0 0 0 0 127 0" result="hardAlpha"/>
<feOffset dy="6.47751"/>
<feGaussianBlur stdDeviation="27.4484"/>
<feComposite in2="hardAlpha" operator="out"/>
<feColorMatrix type="matrix" values="0 0 0 0 0 0 0 0 0 0.52549 0 0 0 0 1 0 0 0 0.1 0"/>
<feBlend mode="normal" in2="BackgroundImageFix" result="effect1_dropShadow_1_304"/>
<feBlend mode="normal" in="SourceGraphic" in2="effect1_dropShadow_1_304" result="shape"/>
</filter>
</defs>
</svg>
